<svg xmlns="http://www.w3.org/2000/svg" width="1313" height="340" viewBox="0 0 1313 340" version="1.1"><path d="M 130.784 44.738 C 133.689 44.941, 138.189 44.939, 140.784 44.734 C 143.378 44.528, 141 44.363, 135.500 44.365 C 130 44.368, 127.878 44.536, 130.784 44.738 M 366.750 79.748 C 374.587 79.917, 387.412 79.917, 395.250 79.748 C 403.087 79.579, 396.675 79.441, 381 79.441 C 365.325 79.441, 358.912 79.579, 366.750 79.748 M 429.345 80.543 C 429.019 81.392, 429.034 82.367, 429.376 82.710 C 429.719 83.053, 430 82.594, 430 81.690 C 430 80.241, 432.037 80.012, 447.250 79.748 L 464.500 79.450 447.219 79.225 C 432.427 79.032, 429.852 79.222, 429.345 80.543 M 572.455 80.257 C 572.185 80.961, 572.093 92.554, 572.250 106.019 L 572.537 130.500 572.769 105.250 L 573 80 610.492 80 L 647.985 80 648.254 140.500 L 648.523 201 648.512 140.250 L 648.500 79.500 610.723 79.238 C 580.747 79.030, 572.845 79.240, 572.455 80.257 M 674.302 79.746 C 679.693 79.926, 688.243 79.925, 693.302 79.744 C 698.361 79.563, 693.950 79.416, 683.500 79.417 C 673.050 79.418, 668.911 79.566, 674.302 79.746 M 847.453 80.262 C 847.187 80.956, 847.095 94.569, 847.250 110.512 L 847.532 139.500 847.766 109.691 L 848 79.882 859.907 80.191 C 866.456 80.361, 871.605 80.162, 871.348 79.750 C 870.496 78.379, 847.990 78.862, 847.453 80.262 M 911.946 80.720 C 910.795 82.238, 910.802 82.316, 911.998 81.250 C 912.944 80.407, 917.073 80, 924.692 80 L 935.985 80 936.254 140.500 L 936.523 201 936.512 140.250 L 936.500 79.500 924.898 79.220 C 914.742 78.974, 913.127 79.161, 911.946 80.720 M 955.680 79.653 C 955.306 80.027, 955 107.483, 955 140.667 L 955 201 975.250 200.772 L 995.500 200.545 975.750 200.251 L 956 199.958 956 139.979 L 956 80 987.500 80 L 1019 80 1019 93.977 L 1019 107.955 1000.750 108.227 L 982.500 108.500 982.439 116.500 L 982.379 124.500 982.730 116.750 L 983.081 109 1001.567 109 L 1020.053 109 1019.777 94.250 L 1019.500 79.500 987.930 79.236 C 970.567 79.091, 956.055 79.279, 955.680 79.653 M 1126.470 80.221 C 1126.201 80.924, 1126.102 108.500, 1126.249 141.500 L 1126.516 201.500 1126.758 140.750 L 1127 80 1139.980 80 L 1152.961 80 1153.230 101.750 L 1153.500 123.500 1163.252 123.557 L 1173.005 123.615 1163.522 123.271 L 1154.039 122.928 1153.769 101.214 L 1153.500 79.500 1140.230 79.221 C 1130.167 79.009, 1126.841 79.251, 1126.470 80.221 M 1186.991 79.734 L 1199.985 80.058 1200.254 140.529 L 1200.523 201 1200.512 140.250 L 1200.500 79.500 1187.249 79.455 L 1173.997 79.409 1186.991 79.734 M 1218.470 80.221 C 1218.201 80.924, 1218.102 108.500, 1218.249 141.500 L 1218.516 201.500 1218.758 140.750 L 1219 80 1231.980 80 L 1244.961 80 1245.230 101.750 L 1245.500 123.500 1248.500 123.593 C 1251.290 123.680, 1251.309 123.658, 1248.769 123.281 L 1246.039 122.876 1245.769 101.188 L 1245.500 79.500 1232.230 79.221 C 1222.167 79.009, 1218.841 79.251, 1218.470 80.221 M 1267.669 79.723 C 1267.404 80.150, 1273.515 80.363, 1281.250 80.195 C 1291.958 79.964, 1295.534 80.202, 1296.233 81.195 C 1296.947 82.209, 1297.061 82.165, 1296.744 81 C 1296.411 79.774, 1293.760 79.449, 1282.244 79.223 C 1274.493 79.071, 1267.934 79.296, 1267.669 79.723 M 132.250 80.739 C 135.412 80.937, 140.588 80.937, 143.750 80.739 C 146.912 80.541, 144.325 80.378, 138 80.378 C 131.675 80.378, 129.088 80.541, 132.250 80.739 M 500.392 95 C 500.392 102.425, 500.549 105.463, 500.742 101.750 C 500.934 98.037, 500.934 91.963, 500.742 88.250 C 500.549 84.537, 500.392 87.575, 500.392 95 M 157.250 101.728 C 159.313 101.944, 162.688 101.944, 164.750 101.728 C 166.813 101.513, 165.125 101.336, 161 101.336 C 156.875 101.336, 155.188 101.513, 157.250 101.728 M 692.223 120.250 L 692.500 134.500 696.757 134.598 L 701.015 134.696 697.007 134.291 L 693 133.885 693 120.497 L 693 107.110 697.750 106.735 L 702.500 106.360 697.223 106.180 L 691.945 106 692.223 120.250 M 600.461 155 C 600.461 180.575, 600.591 191.038, 600.749 178.250 C 600.907 165.463, 600.907 144.538, 600.749 131.750 C 600.591 118.963, 600.461 129.425, 600.461 155 M 380.461 155.500 C 380.461 180.800, 380.591 191.007, 380.749 178.181 C 380.908 165.356, 380.907 144.656, 380.749 132.181 C 380.590 119.707, 380.461 130.200, 380.461 155.500 M 906.405 129.233 C 904.883 131.017, 904.849 131.195, 906.237 130.121 C 907.879 128.850, 907.990 130.781, 908.250 165.138 L 908.526 201.500 908.763 164.250 C 908.893 143.762, 908.845 127, 908.655 127 C 908.465 127, 907.453 128.005, 906.405 129.233 M 503.217 140.750 L 503 154 509.750 153.807 L 516.500 153.615 510.280 153.260 L 504.059 152.906 503.747 140.203 L 503.435 127.500 503.217 140.750 M 745.365 139.500 C 745.368 145, 745.536 147.122, 745.738 144.216 C 745.941 141.311, 745.939 136.811, 745.734 134.216 C 745.528 131.622, 745.363 134, 745.365 139.500 M 274.349 140 C 274.349 144.675, 274.522 146.588, 274.732 144.250 C 274.943 141.912, 274.943 138.088, 274.732 135.750 C 274.522 133.412, 274.349 135.325, 274.349 140 M 804.355 140.500 C 804.352 145.450, 804.521 147.601, 804.731 145.280 C 804.940 142.959, 804.943 138.909, 804.736 136.280 C 804.530 133.651, 804.358 135.550, 804.355 140.500 M 982.219 162.750 L 982 177 985.750 176.840 C 989.402 176.684, 989.416 176.669, 986.278 176.279 L 983.056 175.877 982.747 162.189 L 982.439 148.500 982.219 162.750 M 452 151.448 C 452 152.481, 450.497 153.001, 446.750 153.263 L 441.500 153.630 447.250 153.815 C 452.395 153.981, 453 153.790, 453 152 C 453 150.900, 452.775 150, 452.500 150 C 452.225 150, 452 150.651, 452 151.448 M 1153.231 176.750 L 1153.463 201.500 1153.749 177.286 L 1154.035 153.072 1163.768 152.745 L 1173.500 152.419 1163.250 152.209 L 1153 152 1153.231 176.750 M 1245.231 176.750 L 1245.463 201.500 1245.749 177.143 L 1246.036 152.785 1249.518 153.192 C 1251.433 153.415, 1253 153.239, 1253 152.799 C 1253 152.360, 1251.200 152, 1249 152 L 1245 152 1245.231 176.750 M 692.422 181 C 692.422 192.275, 692.568 196.887, 692.746 191.250 C 692.924 185.613, 692.924 176.387, 692.746 170.750 C 692.568 165.113, 692.422 169.725, 692.422 181 M 497.374 188.500 C 497.376 194.550, 497.541 196.896, 497.740 193.713 C 497.939 190.531, 497.937 185.581, 497.736 182.713 C 497.535 179.846, 497.372 182.450, 497.374 188.500 M 151.784 186.738 C 154.689 186.941, 159.189 186.939, 161.784 186.734 C 164.378 186.528, 162 186.363, 156.500 186.365 C 151 186.368, 148.878 186.536, 151.784 186.738 M 148.250 193.728 C 150.313 193.944, 153.688 193.944, 155.750 193.728 C 157.813 193.513, 156.125 193.336, 152 193.336 C 147.875 193.336, 146.188 193.513, 148.250 193.728 M 1267.256 199 C 1267.594 200.240, 1270.469 200.548, 1283.832 200.775 C 1292.725 200.926, 1300.001 200.701, 1300.001 200.275 C 1300.002 199.849, 1292.955 199.635, 1284.342 199.800 C 1272.351 200.031, 1268.466 199.796, 1267.764 198.800 C 1267.055 197.794, 1266.940 197.839, 1267.256 199 M 854.250 201.742 C 857.962 201.934, 864.038 201.934, 867.750 201.742 C 871.462 201.549, 868.425 201.392, 861 201.392 C 853.575 201.392, 850.538 201.549, 854.250 201.742 M 517.776 204.733 C 520.128 204.945, 523.728 204.942, 525.776 204.727 C 527.824 204.512, 525.900 204.339, 521.500 204.343 C 517.100 204.346, 515.424 204.522, 517.776 204.733 M 146.250 210.742 C 149.963 210.934, 156.037 210.934, 159.750 210.742 C 163.463 210.549, 160.425 210.392, 153 210.392 C 145.575 210.392, 142.537 210.549, 146.250 210.742 M 144.250 220.742 C 147.963 220.934, 154.037 220.934, 157.750 220.742 C 161.463 220.549, 158.425 220.392, 151 220.392 C 143.575 220.392, 140.537 220.549, 144.250 220.742 M 231 234.500 C 226.903 238.625, 223.775 242, 224.050 242 C 224.325 242, 227.903 238.625, 232 234.500 C 236.097 230.375, 239.225 227, 238.950 227 C 238.675 227, 235.097 230.375, 231 234.500 M 37 228.275 C 37 228.426, 40.487 231.914, 44.750 236.025 L 52.500 243.500 45.025 235.750 C 38.082 228.552, 37 227.544, 37 228.275 M 132.280 277.736 C 134.909 277.943, 138.959 277.940, 141.280 277.731 C 143.601 277.521, 141.450 277.352, 136.500 277.355 C 131.550 277.358, 129.651 277.530, 132.280 277.736" stroke="none" fill="#61b7e2" fill-rule="evenodd"/><path d="M 125.008 3.117 C 93.461 5.915, 64.304 19.412, 41.738 41.662 C 31.919 51.343, 26.412 58.393, 19.408 70.245 C 0.166 102.808, -4.615 144.102, 6.597 180.901 C 17.112 215.413, 43.522 246.344, 76.500 262.769 C 94.405 271.687, 111.140 275.882, 132 276.681 C 177.595 278.428, 219.218 258.561, 247.027 221.779 C 280.991 176.853, 282.925 112.508, 251.746 64.761 C 228.330 28.904, 191.224 6.824, 148 3.027 C 141.675 2.472, 136.050 2.075, 135.500 2.146 C 134.950 2.217, 130.229 2.654, 125.008 3.117 M 127 8.075 C 105.343 9.945, 84.808 16.680, 67.090 27.723 C 35.519 47.400, 12.841 81.219, 6.602 117.926 C 4.545 130.031, 4.536 150.881, 6.582 163.074 C 13.624 205.023, 40.629 241.392, 78.500 259.929 C 98.037 269.493, 111.674 273.015, 132 273.748 C 184.549 275.645, 232.449 247.626, 255.465 201.527 C 266.543 179.340, 270.537 161.219, 269.757 136.692 C 269.047 114.386, 265.017 98.728, 254.908 79 C 231.189 32.714, 178.702 3.610, 127 8.075 M 129 39.009 C 124.325 39.451, 116.675 40.773, 112 41.945 C 102.890 44.231, 88.323 49.668, 87.427 51.118 C 86.700 52.294, 87.045 52.248, 91.962 50.513 C 102.331 46.855, 118.237 44.643, 134.500 44.597 C 150.874 44.550, 156.982 45.366, 169 49.204 C 179.725 52.629, 190.631 58.778, 188.893 60.419 C 188.677 60.622, 183.792 59.726, 178.038 58.426 C 163.535 55.150, 142.281 53.625, 129 54.908 C 100.039 57.705, 63.705 68.988, 58.041 76.943 L 55.741 80.173 59.821 78.091 C 66.373 74.749, 73.799 71.975, 84.500 68.873 C 116.785 59.516, 153.144 58.487, 181.074 66.142 C 190.113 68.619, 190.886 69.960, 186.057 74.789 L 183.115 77.731 175.307 76.371 C 156.095 73.024, 126.204 72.808, 108 75.885 C 88.733 79.142, 64.415 88.756, 48.048 99.587 C 44.581 101.881, 41 106.352, 41 108.386 C 41 108.653, 45.113 106.441, 50.140 103.470 C 80.123 85.753, 117.254 77.708, 154.164 80.933 C 168.640 82.198, 174.596 83.332, 172 84.330 C 167.533 86.048, 157.620 88.240, 142 90.964 C 91.082 99.844, 60.889 110.037, 46.532 123.191 C 36.185 132.673, 33.280 143.477, 39 151.213 C 40.853 153.720, 41.037 154.623, 40.111 156.656 C 37.359 162.695, 39.939 170.684, 46.045 175.032 C 48.702 176.924, 48.897 177.470, 48.348 181.479 C 48.018 183.887, 48.048 187.054, 48.415 188.515 C 49.274 191.940, 57.220 200.434, 62.162 203.211 C 64.273 204.398, 66 205.978, 66 206.724 C 66 215.946, 89.893 233.419, 110.042 238.933 C 131.475 244.797, 158.053 243.034, 176.112 234.551 C 179.076 233.159, 180.551 232.251, 179.390 232.533 C 160.962 237.013, 137.493 238.294, 123.984 235.557 C 113.281 233.388, 102.578 229.262, 93 223.613 C 85.662 219.285, 76.515 212.151, 77.299 211.368 C 77.516 211.151, 82.375 212.983, 88.097 215.441 C 122.177 230.077, 156.383 231.348, 193.843 219.371 C 200.082 217.376, 206.382 214.709, 207.843 213.445 L 210.500 211.146 203.500 213.099 C 183.214 218.757, 172.235 220.333, 152.500 220.417 C 131.588 220.506, 123.648 219.401, 105.500 213.872 C 92.722 209.980, 76 202.217, 76 200.178 C 76 199.342, 76.709 197.874, 77.575 196.917 C 79.066 195.270, 79.539 195.336, 86.325 198.144 C 118.647 211.515, 159.153 213.908, 194.582 204.539 C 207.214 201.198, 222.909 195.039, 224.004 192.992 C 224.781 191.541, 223.660 191.705, 216.614 194.073 C 204.913 198.005, 180.742 202.706, 166 203.916 C 147.818 205.409, 126.707 203.359, 110 198.480 C 102.449 196.274, 88.008 190.635, 88.004 189.891 C 88.002 189.556, 90.851 188.346, 94.335 187.202 L 100.671 185.122 110.085 187.577 C 137.643 194.764, 163.931 194.599, 193.800 187.053 C 213.913 181.971, 233.312 173.737, 234.329 169.850 C 234.670 168.544, 234.442 168.022, 233.677 168.358 C 211.884 177.910, 194.878 182.865, 175.158 185.408 C 160.807 187.259, 153.894 187.372, 141.550 185.958 C 132.736 184.949, 118.553 182.113, 119.180 181.486 C 119.357 181.310, 128.951 179.529, 140.501 177.529 C 186.414 169.580, 203.168 164.910, 218.244 155.859 C 233.264 146.841, 238.663 139.347, 238.111 128.285 C 238.050 127.066, 236.587 124.460, 234.859 122.492 C 232.087 119.335, 231.852 118.620, 232.859 116.410 C 234.492 112.827, 234.267 106.364, 232.370 102.368 C 231.474 100.479, 228.999 97.443, 226.870 95.621 C 224.159 93.300, 223 91.504, 223 89.622 C 223 88.145, 222.336 85.347, 221.525 83.406 C 219.637 78.886, 210.577 70.022, 205.456 67.683 C 202.657 66.404, 200.962 64.721, 199.662 61.925 C 197.678 57.663, 189.629 51.312, 180.221 46.588 C 167.814 40.357, 147.120 37.295, 129 39.009 M 198.068 76.904 C 196.931 78.502, 196 80.035, 196 80.313 C 196 80.937, 207.892 85, 209.720 85 C 211.853 85, 208.587 79.549, 204.657 76.552 C 202.817 75.148, 201.047 74, 200.724 74 C 200.401 74, 199.206 75.307, 198.068 76.904 M 780.166 79.489 C 768.375 82.132, 758.942 90.050, 753.166 102.151 C 747.702 113.602, 746.546 120.355, 746.603 140.500 C 746.646 155.604, 746.993 159.730, 748.759 166.144 C 752.877 181.097, 761.066 192.955, 770.611 197.786 C 782.079 203.589, 799.279 203.129, 810.205 196.726 C 826.748 187.031, 835.872 160.826, 833.088 131.006 C 831.439 113.348, 827.403 101.347, 819.944 91.930 C 811.562 81.347, 794.994 76.165, 780.166 79.489 M 518 79.619 C 516.075 79.812, 511.462 80.467, 507.750 81.075 L 501 82.182 501 95.046 L 501 107.911 505.149 106.447 C 511.333 104.266, 519.224 104.363, 523.185 106.671 C 529.742 110.491, 530.109 120.206, 523.894 125.436 C 521.151 127.744, 520.005 128, 512.423 128 L 504 128 504 140.500 L 504 153 509.250 153.044 C 521.967 153.149, 527.692 156.284, 528.685 163.685 C 529.352 168.660, 527.088 173.386, 523.033 175.483 C 519.281 177.423, 509.756 177.436, 503.409 175.511 C 500.709 174.692, 498.387 174.017, 498.250 174.011 C 498.113 174.005, 498 179.593, 498 186.428 L 498 198.856 503.750 201.158 C 508.674 203.129, 511.311 203.463, 522.101 203.480 C 534.545 203.500, 534.787 203.457, 541.563 200 C 554.124 193.593, 559.607 183.123, 558.794 167.098 C 558.164 154.670, 553.478 146.902, 543.517 141.773 L 539.534 139.722 542.008 138.111 C 554.051 130.270, 559.084 119.422, 556.918 105.973 C 555.022 94.198, 549.708 87.017, 539.500 82.437 C 534.538 80.211, 524.821 78.937, 518 79.619 M 352 140.500 L 352 201 366 201 L 380 201 380 155.500 L 380 110 394.500 110 L 409 110 409 95 L 409 80 380.500 80 L 352 80 352 140.500 M 429.674 82.250 C 429.376 83.487, 424.152 109.925, 418.065 141 C 411.978 172.075, 406.815 198.287, 406.592 199.250 C 406.222 200.852, 407.357 201, 419.991 201 L 433.795 201 434.825 194.750 C 435.392 191.313, 436.153 186.588, 436.516 184.250 L 437.176 180 447.451 180 L 457.726 180 458.908 187.750 C 459.558 192.012, 460.330 196.738, 460.624 198.250 L 461.159 201 474.579 201 C 484.637 201, 488.006 200.687, 488.024 199.750 C 488.037 199.063, 482.763 171.838, 476.304 139.250 L 464.561 80 447.389 80 C 430.408 80, 430.211 80.025, 429.674 82.250 M 573 140.500 L 573 201 586.500 201 L 600 201 600 155 L 600 109 610.500 109 L 621 109 621 155 L 621 201 634.500 201 L 648 201 648 140.500 L 648 80 610.500 80 L 573 80 573 140.500 M 665 140.432 L 665 201 678.500 201 L 692 201 692 181.143 L 692 161.287 701.073 160.602 C 706.068 160.225, 712.573 159.009, 715.544 157.898 C 730.368 152.351, 739.967 132.687, 737.045 113.854 C 734.824 99.540, 727.193 88.326, 716.148 83.148 C 710.638 80.565, 709.945 80.492, 687.750 80.182 L 665 79.865 665 140.432 M 847.995 95.750 C 847.993 104.412, 847.695 131.637, 847.333 156.250 L 846.676 201 860.826 201 L 874.976 201 875.238 163.992 L 875.500 126.984 883.297 136.992 C 887.585 142.496, 891.410 146.979, 891.797 146.952 C 892.183 146.926, 896.100 142.333, 900.500 136.746 L 908.500 126.588 908.762 163.794 L 909.024 201 922.512 201 L 936 201 936 140.500 L 936 80 924.563 80 L 913.127 80 902.823 94 C 897.156 101.700, 892.215 108, 891.844 108 C 891.473 108, 886.578 101.700, 880.965 94 L 870.760 80 859.380 80 L 848 80 847.995 95.750 M 956 140 L 956 200 975.818 200 C 990.588 200, 996.933 199.615, 1000.725 198.489 C 1011.583 195.265, 1020.396 186.326, 1023.607 175.281 C 1025.759 167.876, 1025.675 154.554, 1023.430 147.417 C 1021.163 140.210, 1013.923 132.073, 1007.205 129.183 C 1002.076 126.977, 992.003 125.020, 985.710 125.008 L 981.919 125 982.210 116.750 L 982.500 108.500 1000.750 108.227 L 1019 107.955 1019 93.977 L 1019 80 987.500 80 L 956 80 956 140 M 1055.505 82.226 C 1054.531 86.288, 1032 199.426, 1032 200.254 C 1032 200.695, 1038.176 200.931, 1045.724 200.778 L 1059.449 200.500 1061.162 190.500 C 1062.105 185, 1062.904 180.387, 1062.938 180.250 C 1062.972 180.113, 1067.500 180, 1073 180 C 1078.500 180, 1083.028 180.113, 1083.062 180.250 C 1083.096 180.387, 1083.895 185, 1084.838 190.500 L 1086.551 200.500 1100.326 200.779 L 1114.101 201.057 1113.398 197.279 C 1113.011 195.200, 1107.683 168.075, 1101.558 137 L 1090.422 80.500 1073.236 80.226 C 1056.085 79.954, 1056.049 79.958, 1055.505 82.226 M 1127 140.500 L 1127 201 1140 201 L 1153 201 1153 176.500 L 1153 152 1163 152 L 1173 152 1173 176.500 L 1173 201 1186.500 201 L 1200 201 1200 140.500 L 1200 80 1186.500 80 L 1173 80 1173 102.036 L 1173 124.072 1163.250 123.786 L 1153.500 123.500 1153.230 101.750 L 1152.961 80 1139.980 80 L 1127 80 1127 140.500 M 1219 140.500 L 1219 201 1232 201 L 1245 201 1245 176.500 L 1245 152 1248.772 152 L 1252.544 152 1260.293 176 L 1268.043 200 1283.521 200 C 1292.035 200, 1299 199.813, 1299 199.584 C 1299 199.356, 1293.758 185.518, 1287.352 168.834 C 1280.945 152.150, 1275.741 137.825, 1275.787 137 C 1275.832 136.175, 1280.397 123.350, 1285.931 108.500 C 1291.465 93.650, 1295.994 81.150, 1295.996 80.723 C 1295.998 80.295, 1289.599 80.070, 1281.775 80.223 L 1267.550 80.500 1263.754 91 C 1261.667 96.775, 1258.110 106.587, 1255.850 112.804 L 1251.742 124.108 1248.621 123.804 L 1245.500 123.500 1245.230 101.750 L 1244.961 80 1231.980 80 L 1219 80 1219 140.500 M 184.500 89.591 C 182.300 90.981, 179.375 92.595, 178 93.176 C 175.756 94.124, 176.575 94.524, 186 97.082 C 191.775 98.649, 197.457 100.207, 198.627 100.543 C 200.149 100.981, 201.783 100.251, 204.377 97.974 C 206.370 96.224, 208 94.463, 208 94.060 C 208 93.428, 190.381 86.900, 189 87.019 C 188.725 87.043, 186.700 88.200, 184.500 89.591 M 216.690 102.802 L 213.885 105.729 218.189 108.271 C 220.557 109.669, 222.833 110.603, 223.247 110.347 C 224.770 109.406, 223.936 105.037, 221.747 102.493 L 219.495 99.874 216.690 102.802 M 142.500 102.965 C 112.880 107.319, 74.916 117.358, 60.863 124.554 C 54.934 127.590, 48.843 132.402, 47.401 135.191 C 45.710 138.462, 45.569 144.169, 47.141 145.741 C 47.995 146.595, 49.439 145.906, 52.891 142.997 C 64.810 132.950, 89.240 125.502, 141.500 115.983 C 162.867 112.091, 186 106.903, 186 106.002 C 186 104.205, 168.762 100.960, 160 101.108 C 156.975 101.159, 149.100 101.995, 142.500 102.965 M 692.223 120.250 L 692.500 134.500 697.597 134.466 C 700.672 134.445, 703.730 133.752, 705.307 132.718 C 708.590 130.567, 710.417 124.203, 709.640 117.624 C 708.626 109.034, 705.172 106, 696.407 106 L 691.945 106 692.223 120.250 M 783.873 108.684 C 777.825 112.437, 775 122.300, 775 139.661 C 775 152.850, 776.164 160.359, 779.110 166.184 C 781.606 171.118, 784.563 173, 789.823 173 C 793.447 173, 794.771 172.429, 797.520 169.680 C 802.710 164.490, 804.430 157.226, 804.430 140.500 C 804.430 121.463, 801.590 111.908, 794.901 108.449 C 791.254 106.563, 787.150 106.650, 783.873 108.684 M 196 114.578 C 185.353 118.767, 173.030 121.734, 144 127.096 C 110.697 133.248, 97.823 136.105, 85.148 140.158 C 75.939 143.102, 62.653 149.250, 58.601 152.442 C 56.754 153.897, 56.768 153.993, 59.101 155.922 C 64.226 160.161, 66.638 160.510, 71.789 157.760 C 81.598 152.524, 97.122 148.635, 137 141.426 C 173.543 134.819, 202.333 127.061, 212.373 121.114 L 217.246 118.228 212.804 115.625 C 206.321 111.826, 203.451 111.647, 196 114.578 M 446.547 120.148 C 445.477 126.312, 442 151.091, 442 152.555 C 442 153.640, 443.371 154, 447.500 154 C 450.525 154, 453 153.825, 453 153.612 C 453 152.079, 447.751 117.425, 447.477 117.148 C 447.286 116.954, 446.867 118.304, 446.547 120.148 M 1070.137 133.755 C 1068.886 142.965, 1067.639 151.287, 1067.364 152.250 C 1066.932 153.767, 1067.607 154, 1072.433 154 C 1077.539 154, 1078 153.814, 1078.001 151.750 C 1078.003 147.879, 1073.735 118.539, 1073.055 117.755 C 1072.700 117.345, 1071.387 124.545, 1070.137 133.755 M 220.500 129.248 C 207.902 138.721, 182.391 145.911, 129 155.034 C 101.156 159.791, 79.965 165.517, 81.430 167.886 C 81.745 168.397, 85.389 170.224, 89.526 171.946 L 97.048 175.078 109.274 172.053 C 115.998 170.389, 129.375 167.651, 139 165.968 C 162.197 161.913, 169.657 160.386, 181 157.369 C 210.880 149.421, 226.200 140.655, 226.200 131.505 C 226.200 129.467, 225.817 127.449, 225.350 127.020 C 224.882 126.591, 222.700 127.593, 220.500 129.248 M 982 163 L 982 177 985.250 176.998 C 989.972 176.996, 995.059 174.015, 997.165 170.016 C 1000.724 163.257, 998.699 152.551, 993.405 150.139 C 992.030 149.512, 988.902 149, 986.453 149 L 982 149 982 163 M 50 164.315 C 50 165.621, 50.857 167.466, 51.904 168.413 C 53.525 169.880, 54.120 169.942, 55.904 168.828 C 57.057 168.108, 57.997 167.290, 57.992 167.009 C 57.988 166.729, 56.188 165.474, 53.992 164.220 L 50 161.940 50 164.315 M 66.106 174.885 C 63.121 177.180, 63.819 178.368, 69.994 181.497 L 74.846 183.956 79.529 181.884 C 82.105 180.745, 83.827 179.481, 83.356 179.075 C 82.327 178.188, 70.157 172.991, 69.184 173.022 C 68.808 173.034, 67.423 173.873, 66.106 174.885 M 59.004 186.135 C 59.010 188.270, 62.828 194, 64.245 194 C 64.946 194, 66.073 193.113, 66.749 192.030 C 67.808 190.335, 67.667 189.894, 65.740 188.874 C 64.508 188.222, 62.487 187.032, 61.250 186.229 C 59.395 185.026, 59.001 185.010, 59.004 186.135 M 426.882 234.381 C 417.747 237.645, 412.659 243.051, 409.430 252.924 C 406.934 260.555, 407.786 272.682, 411.367 280.497 C 416.347 291.363, 421.873 295.055, 434.267 295.795 C 446.721 296.539, 454.702 292.469, 459.549 282.903 C 462.858 276.373, 462.690 275.418, 458.022 274.234 L 454.044 273.224 451.651 278.451 C 448.467 285.407, 443.657 288.467, 435.906 288.467 C 428.483 288.467, 422.734 284.825, 419.662 278.177 C 416.525 271.390, 416.602 256.340, 419.805 250.251 C 424.315 241.677, 434.655 237.984, 443.365 241.837 C 446.317 243.143, 448.676 245.055, 449.769 247.027 C 453.105 253.046, 453.166 253.086, 457.250 251.950 C 459.313 251.376, 461 250.340, 461 249.649 C 461 247.461, 455.354 239.386, 452.369 237.306 C 450.791 236.206, 447.970 234.787, 446.101 234.153 C 441.627 232.636, 431.427 232.757, 426.882 234.381 M 621.882 234.381 C 612.747 237.645, 607.659 243.051, 604.430 252.924 C 601.934 260.555, 602.786 272.682, 606.367 280.497 C 611.347 291.363, 616.873 295.055, 629.267 295.795 C 641.721 296.539, 649.702 292.469, 654.549 282.903 C 657.858 276.373, 657.690 275.418, 653.022 274.234 L 649.044 273.224 646.651 278.451 C 643.467 285.407, 638.657 288.467, 630.906 288.467 C 623.483 288.467, 617.734 284.825, 614.662 278.177 C 611.525 271.390, 611.602 256.340, 614.805 250.251 C 619.315 241.677, 629.655 237.984, 638.365 241.837 C 641.317 243.143, 643.676 245.055, 644.769 247.027 C 648.105 253.046, 648.166 253.086, 652.250 251.950 C 654.313 251.376, 656 250.340, 656 249.649 C 656 247.461, 650.354 239.386, 647.369 237.306 C 645.791 236.206, 642.970 234.787, 641.101 234.153 C 636.627 232.636, 626.427 232.757, 621.882 234.381 M 367.438 248.699 C 364.272 256.840, 359.054 270.245, 355.841 278.488 C 352.629 286.731, 350 293.819, 350 294.238 C 350 294.657, 351.966 295, 354.368 295 L 358.736 295 362.224 285.750 L 365.711 276.500 377.946 276.500 L 390.182 276.500 393.723 285.750 L 397.265 295 402.132 295 C 404.810 295, 407 294.845, 407 294.656 C 407 294.467, 401.453 280.854, 394.674 264.406 L 382.349 234.500 377.771 234.199 L 373.193 233.898 367.438 248.699 M 495 264.500 L 495 295 499.500 295 L 504 295 504 268 L 504 241 519.500 241 L 535 241 535 268 L 535 295 539.500 295 L 544 295 544 264.500 L 544 234 519.500 234 L 495 234 495 264.500 M 557 264.500 L 557 295 561.500 295 L 566 295 566 280.433 L 566 265.865 568.250 266.534 C 571.998 267.648, 576.025 272.355, 582.934 283.695 L 589.517 294.500 594.759 294.802 C 597.641 294.969, 600 294.790, 600 294.406 C 600 293.507, 588.433 274.535, 585.220 270.165 C 583.872 268.331, 581.474 266.042, 579.891 265.080 L 577.014 263.330 579.551 261.973 C 581.191 261.095, 583.468 257.711, 585.990 252.402 C 590.146 243.654, 592.761 241, 597.223 241 C 599.730 241, 600 240.660, 600 237.500 L 600 234 595.148 234 C 587.659 234, 584.366 236.807, 579 247.765 C 573.988 257.998, 572.730 259.567, 568.750 260.543 L 566 261.217 566 247.608 L 566 234 561.500 234 L 557 234 557 264.500 M 376.554 245.754 C 376.184 247.438, 374.151 253.357, 372.035 258.908 L 368.189 269 377.594 269 C 382.767 269, 387 268.842, 387 268.649 C 387 268.456, 384.801 262.536, 382.113 255.495 C 377.712 243.965, 377.160 242.997, 376.554 245.754" stroke="none" fill="#249cd4" fill-rule="evenodd"/></svg>