<svg viewBox="5 5 34 34" fill="none" xmlns="http://www.w3.org/2000/svg">
<path d="M25.455 5.327c-.111.14-.123.235-.123.873 0 .639.012.733.123.873.152.194.516.217.697.036.106-.106.117-.194.117-.909 0-.715-.011-.802-.117-.908-.181-.182-.545-.158-.697.035ZM20.908 6.67a.45.45 0 0 0-.146.328c0 .164.082.275.545.738.463.463.574.545.738.545a.488.488 0 0 0 .474-.474c0-.164-.081-.276-.544-.739-.463-.463-.575-.545-.739-.545a.45.45 0 0 0-.328.147ZM29.68 7.068c-.475.48-.54.563-.54.75 0 .27.194.463.463.463.165 0 .27-.076.663-.457.257-.246.51-.527.556-.62a.462.462 0 0 0-.41-.68c-.164 0-.27.076-.732.544ZM25.11 8.111c-1.372.176-2.567.985-3.106 2.104-.316.639-.428 1.095-.44 1.787l-.011.556-.235.065c-.129.03-.433.123-.673.205-.627.217-.698.223-1.02.088-.715-.31-2.215-.598-3.85-.738-1.183-.106-1.341-.082-1.459.199-.082.205-.023.457.141.562.076.053.434.106.902.147 1.588.129 2.801.334 3.663.627l.48.164.018 8.162c.006 4.482-.006 8.156-.03 8.156-.029 0-.216-.053-.427-.123-1.407-.44-3.194-.662-5.332-.656-2.01.006-3.622.217-5.034.656l-.533.17.012-8.15.017-8.15.176-.106c.264-.147 1.553-.492 2.262-.598.334-.047.95-.117 1.371-.152.639-.053.785-.088.89-.188.17-.158.176-.45.024-.638-.105-.13-.152-.14-.633-.13-1.722.048-4.054.563-4.611 1.026-.27.223-.44.574-.445.902v.24l-.387.071c-.75.135-1.318.563-1.647 1.225l-.164.334-.017 8.308C5 32.492 5 32.54 5.117 32.896c.235.698.739 1.295 1.342 1.6.662.34.264.328 9.832.328h8.8l.118-.152c.2-.252.123-.598-.152-.72-.094-.042-.862-.065-2.362-.065H20.47V32.598l5.701-.012 5.707-.018.281-.175a1.36 1.36 0 0 0 .463-.498l.182-.323.017-8.162.012-8.156.164.035c.434.106.791.387.955.756.106.222.112.627.112 8.273 0 7.91 0 8.045-.118 8.356-.17.445-.462.761-.925.99l-.393.193-2.977.03-2.982.029-.111.14c-.147.182-.147.499.006.651.11.111.193.117 3.035.117 3.135 0 3.34-.017 3.925-.316.616-.31 1.125-.914 1.36-1.612.117-.357.117-.404.105-8.66l-.017-8.308-.164-.334c-.328-.662-.897-1.09-1.647-1.225l-.386-.07v-.24a1.245 1.245 0 0 0-.446-.903c-.24-.199-.943-.457-1.752-.644l-.468-.112-.041-.586c-.135-2.027-1.524-3.439-3.628-3.709a4.4 4.4 0 0 0-1.33.006Zm1.71 1.032c.774.187 1.547.755 1.91 1.4.37.645.51 1.676.323 2.396-.111.422-.299.768-.68 1.26-1.096 1.418-1.265 1.7-1.435 2.367l-.094.387h-.574v-2.988h.404c.223 0 .451-.018.504-.035.146-.059.275-.364.234-.557-.076-.328-.158-.346-1.629-.346h-1.336l-.14.147a.457.457 0 0 0-.147.322c0 .111.053.234.147.322.123.13.193.147.586.147h.44v2.988h-.563l-.07-.346c-.112-.539-.481-1.195-1.102-1.968-.909-1.137-1.096-1.547-1.09-2.461 0-.633.076-.99.305-1.465.632-1.33 2.32-1.992 4.007-1.57Zm4.284 4.5c.257.076.527.181.603.234l.129.094v16.271l-.533-.17c-1.412-.44-3.024-.65-5.033-.656-2.14-.006-3.926.217-5.332.656-.211.07-.399.123-.428.123-.024 0-.035-3.674-.03-8.162l.018-8.156.469-.152c.814-.27.726-.293 1.008.257.14.27.51.803.838 1.213.609.756.908 1.278.966 1.676.03.223.024.234-.246.404a1.383 1.383 0 0 0-.45.498c-.16.282-.182.381-.182.762 0 .34.035.498.128.68.176.328.457.603.78.75.246.117.363.123 1.933.123 1.875 0 2.069-.03 2.467-.37.34-.292.521-.702.521-1.183 0-.598-.257-1.043-.814-1.406l-.135-.088.13-.38c.152-.464.275-.663.937-1.495.574-.72.82-1.113.972-1.541l.106-.287.351.082c.2.04.569.146.827.223ZM7.18 23.41l.017 8.162.182.323c.129.222.27.375.463.497l.281.176 5.707.018 5.701.012V33.887l-6.082-.012-6.076-.018-.392-.193c-.463-.229-.756-.545-.926-.99-.117-.31-.117-.446-.117-8.373 0-7.893 0-8.063.117-8.28.193-.38.638-.703 1.066-.761.024-.006.053 3.668.059 8.15Zm20.156-5.46c.463.128.615.667.287 1.001l-.17.17H24.22l-.188-.17c-.158-.14-.193-.21-.193-.404 0-.281.182-.51.463-.592.258-.076 2.771-.076 3.035-.006ZM15.664 30.435c1.371.117 2.695.38 3.533.697.317.117.334.134.334.328v.2H8.433l-.134-.13c-.076-.07-.135-.158-.135-.199 0-.047.299-.17.72-.31 1.84-.598 4.255-.81 6.78-.586Zm11.941-.036c.786.036 1.337.106 2.18.27.75.146 2.051.562 2.051.65 0 .041-.059.13-.129.205l-.123.135H20.47v-.2c0-.193.017-.21.34-.327 1.271-.487 4.06-.862 5.754-.785.21.011.68.035 1.043.052Z" stroke="currentColor" stroke-opacity="1" stroke-width="0.7"/>
<path d="M24.629 22.284c-1.05.13-2.309.486-2.584.739-.153.134-.153.55-.006.685.146.135.492.123.767-.012 1.014-.521 3.956-.697 5.631-.34.37.077.85.211 1.06.3.505.199.768.199.927 0 .31-.4.058-.686-.85-.98-1.02-.327-1.57-.403-3.129-.421-.756-.012-1.576 0-1.816.03ZM25.244 25.484c-1.312.13-2.22.317-2.818.58-.41.182-.492.276-.492.563 0 .17.035.246.158.346.193.152.363.134.885-.088.767-.323 2.478-.54 3.767-.475.914.041 1.934.211 2.514.416.767.27.803.281.96.24.212-.052.364-.369.288-.597-.094-.31-1.102-.686-2.315-.873-.58-.088-2.46-.159-2.947-.112ZM12.248 15.78c-.633.077-1.306.23-1.91.422-.826.264-1.072.58-.75.955.152.182.445.212.72.07.235-.122.891-.304 1.518-.433.422-.082.809-.105 1.934-.105 1.582.006 2.209.082 3.076.392.955.334 1.26.276 1.219-.252-.024-.316-.176-.433-.862-.662-.884-.287-1.71-.398-3.199-.416-.738-.011-1.53 0-1.746.03ZM12.529 19.01c-1.101.11-2.385.427-2.824.697-.334.199-.299.72.058.843.13.047.282.018.791-.158.791-.27 1.342-.38 2.338-.463 1.371-.117 3.293.1 4.149.463.504.211.674.229.867.076.123-.1.158-.175.158-.351a.52.52 0 0 0-.1-.328c-.251-.246-1.2-.54-2.261-.698-.78-.11-2.467-.158-3.176-.082ZM12.442 22.267c-1.143.111-2.543.498-2.824.78-.194.198-.211.398-.041.608.158.2.421.2.925 0 1.371-.55 4.155-.65 5.918-.216.211.052.528.158.703.234.604.258.944.147.944-.322 0-.188-.035-.264-.152-.358-.334-.263-1.542-.591-2.614-.703-.521-.058-2.373-.076-2.86-.023ZM12.471 25.514c-1.078.111-2.326.422-2.766.691-.316.2-.31.692.012.838.17.076.258.059 1.025-.217.827-.287 1.647-.398 3.018-.398 1.377-.006 2.408.129 3.135.41.732.281.797.293.978.158.17-.129.229-.34.164-.592-.064-.27-1.06-.62-2.302-.814-.704-.105-2.555-.152-3.264-.076Z" stroke="currentColor" stroke-opacity="0.35" stroke-width="1.2"/>
</svg>
