<svg width="2600" height="800" xmlns="http://www.w3.org/2000/svg">


<g>
	<title>Layer 1</title>
	<style transform="matrix(0.06840341875943423,0,0,0.06840341875943423,0,0) " type="text/css">.st0{fill-rule:evenodd;clip-rule:evenodd;fill:#fff;}
.st1{fill-rule:evenodd;clip-rule:evenodd;fill:#fff;}</style>
<g stroke="null" id="svg_35">
<g stroke="null" transform="matrix(5.082183971176018,0,0,5.082183971176018,-18315.456380195163,-13905.847016581145) " id="svg_19">
<path stroke="null" d="m3604.503983,2813.02686c0,29.7 24.1,53.8 53.8,53.8s53.8,-24.1 53.8,-53.8s-24.1,-53.8 -53.8,-53.8s-53.8,24.1 -53.8,53.8zm1.9,0c0,-28.7 23.3,-52 52,-52s52,23.3 52,52c0,28.6 -23.3,51.9 -52,51.9c-28.7,0.1 -52,-23.2 -52,-51.9z" class="st0" id="svg_33"/>
<path stroke="null" d="m3621.303983,2798.32686c13.8,-9 29,-14.3 54.8,-9.8c1.4,-0.8 2.2,-1.6 2.6,-3.3c-6.4,-2.3 -13.4,-3.1 -22.4,-3c-8.1,0.2 -22.7,3.2 -30.5,7.8l2.4,-3c5.5,-3.2 19.7,-7.4 30.3,-7.7c7.5,-0.1 11.4,0.3 20.3,2.7c-0.8,-1.5 -2.6,-2.3 -5.3,-3.5c-8.6,-3.9 -24.8,-4.2 -38,1.6c1.7,-1.1 3.3,-2.1 5.5,-3.1c4.4,-2 11.5,-3.9 20.4,-3.8c7.1,0.1 15.6,2.6 20.8,7.7c0.9,1 1.4,2.1 1.6,3c4.1,2.1 6.5,4 7.8,6.3c0.5,1.2 0.8,2.5 0.5,3.9c1.7,1 2.5,1.9 3.4,3c0.6,0.9 1.1,2 1.2,3c0.2,1.3 0.3,2.7 -1,4.4c1.4,0.7 2.5,2.6 2.7,3.5c0.6,3.1 -1.3,6.1 -4,8.5c-3,2.7 -9.7,5.8 -15.1,7.2c-10.8,2.7 -20.3,3.9 -27.9,5.3c3.4,0.8 8,1.9 15.6,1.9c16.1,0 30.3,-7.6 30.3,-7.6s-0.3,1 -0.6,1.9c-10.2,6.2 -26.5,8.8 -33.4,8.5c-7.1,-0.3 -13,-1.4 -18.8,-3.2c-1.8,0.5 -3.5,1 -5.2,1.8c8.8,4 15.5,4.9 23.1,5.5c7.7,0.6 20.4,-1.3 31.2,-5.2c-0.5,0.5 -0.7,1.3 -1.2,1.7c-5.5,2.9 -17.2,5.8 -23,6s-12.9,0 -19.1,-1.1c-5.3,-1 -9.7,-2.7 -14.2,-4.7c-0.8,0.6 -1.2,1.4 -1.4,2.3c17.3,9.2 33.9,9.4 52.8,3.5l-1.7,1.7c-20.8,8.4 -37,5.1 -49.6,-0.9c-0.4,-0.2 -0.9,-0.4 -1.3,-0.6c1.2,2 10.8,9 21.5,9.9c7.4,0.6 16.4,-0.7 21.8,-2.8l-3.2,1.6c-2.6,1.3 -9.5,4.2 -19.1,3.5c-12.8,-0.9 -20,-6.5 -23.3,-9.5c-1.5,-1.4 -2.2,-3 -2.7,-5c-2.9,-1.5 -4.7,-3.1 -6.2,-5.4c-0.9,-1.4 -0.7,-2.9 -0.5,-4.2l0.3,-1.2c-1.4,-1 -2.8,-2.1 -3.4,-3.2c-1.3,-2.3 -0.5,-4.2 0.4,-5.8c-0.8,-0.9 -1.5,-1.7 -1.8,-2.6c-0.3,-1.1 -0.4,-2.1 -0.3,-3.2c0.2,-1.9 1.3,-3.7 2.6,-5.2c2.8,-3.2 7.2,-5.7 14.8,-8.2c7.4,-2.4 10.3,-2.8 15.9,-4.1c6.5,-1.5 14.3,-2 20.8,-4.3c-18.1,-3.2 -37,-0.3 -52.3,10.3l1.1,-2.8zm61.7,-11.2c-0.2,0.9 -1.2,1.9 -1.8,2.6c2,0.5 4,1.2 5.9,2c-0.3,-1.8 -2.3,-3.5 -4.1,-4.6zm-55.8,36.2c-1.2,-0.7 -2,-1.1 -2.9,-1.8c-0.5,1.1 0.5,2.4 1.5,3c0.4,-0.4 0.9,-0.8 1.4,-1.2zm61.1,-23.7c1.3,0.6 2.5,1.1 3.6,1.9c0.8,-1.6 0.3,-2.6 -1.4,-4c-0.6,0.8 -1.4,1.5 -2.2,2.1zm-3.9,2.4c-2.6,1.2 -6.5,2.5 -11.9,3.9c-4.4,1.1 -15.3,2.7 -27,5.2c-3.7,0.8 -13.7,3.2 -18.6,7.3c1.4,1.1 2.2,1.4 3.8,2.2c2,-1.3 4.8,-2.5 8.9,-3.6c7.2,-1.9 12.5,-2.7 19,-3.8c6.4,-1 18.4,-3.5 25.1,-5.9c2.2,-0.8 4.2,-1.8 5.7,-3c-0.5,-0.4 -4.8,-2.5 -5,-2.3zm-50.4,27.9c1,-0.6 2.2,-1.2 3.5,-1.7c-1.9,-0.8 -3.8,-1.6 -5.7,-2.5c-0.9,0.5 -1.7,1.1 -2.3,1.7c1.5,0.8 2.9,1.7 4.5,2.5zm-6.2,0.6c0,1.2 0.7,2.3 2.3,3.6c0.2,-0.7 0.5,-1.1 1,-1.7c-1.2,-0.6 -2.2,-1.3 -3.3,-1.9zm9.1,-22.2c13.1,-3.8 26.9,-5 40.9,-8.7c-5.5,-1.5 -8.4,-2.1 -14.2,-1.4c-8.4,1 -17.6,2.8 -25.5,5.1c-3.1,0.9 -19.4,5.5 -14.7,12c0,0.1 2.8,-3.8 13.5,-7zm49.2,-13.4c-2.1,-1 -4.8,-1.9 -7.7,-2.7c-1.3,1 -2.7,1.9 -4.9,2.7c3.5,0.6 6.2,1.6 9.2,2.5c0.6,0.3 3,-2 3.4,-2.5zm6.5,12.6c-0.4,0.3 -0.8,0.7 -1.3,1c-3,2.3 -7.7,4.1 -14.2,5.9c-13.5,3.6 -23.3,4.2 -34.5,6.9c-2.2,0.5 -4.4,1.3 -6.5,2.1c2.1,1.1 4.3,2 6.6,2.9c4.5,-1.3 6.7,-1.9 13.3,-3c2.5,-0.4 10.2,-1.8 15.8,-3c10,-2 24.7,-6.7 20.8,-12.8z" class="st0" id="svg_32"/>
<g stroke="null" id="svg_20">
<path stroke="null" d="m3763.603983,2836.426859l11.1,0l1.3,-8.1l7.6,0l1.3,8.1l11.1,0l-9.4,-47.1l-13.8,0l-9.2,47.1zm16.3,-32.9l2.1,14.4l-4.1,0l2,-14.4z" class="st0" id="svg_31"/>
<path stroke="null" d="m3806.603983,2807.626859c1.8,0 5,-1.1 5,-4.6c0,-4.1 -3.8,-4.4 -4.8,-4.4c-1.3,0 -3.6,0.2 -6,1.3l-0.1,-10.2c3.7,-0.9 6.4,-1.2 9.5,-1.2c8.9,0 13,6.3 13,12.4c0,6 -3.5,9.6 -6.8,11l0,0.5c3.2,1 7.5,4.1 7.5,11.3c0,8.9 -6.2,13.8 -14.1,13.8c-4.3,0 -7,-0.6 -10.3,-2.4l0.2,-9.8c3.1,1.3 5.2,1.4 7.3,1.4c3.5,0 4.9,-2.6 4.9,-4.5c0,-2.6 -1.7,-4.4 -5.4,-4.4l-4.5,0l0,-10.2l4.6,0z" class="st0" id="svg_30"/>
<polygon stroke="null" points="3858.904052734375,2836.4268436431885 3847.904052734375,2836.4268436431885 3847.904052734375,2800.6267948150635 3840.003662109375,2800.6267948150635 3840.003662109375,2836.4268436431885 3829.003662109375,2836.4268436431885 3829.003662109375,2789.3269901275635 3858.904052734375,2789.3269901275635 " class="st0" id="svg_29"/>
<path stroke="null" d="m3865.103983,2836.426859l10.9,0l0,-15.5l3.7,0c10.8,0 14.2,-9.7 14.2,-15.9c0,-6.1 -3.8,-15.7 -14.2,-15.7l-14.6,0l0,47.1zm10.9,-36.7l2.6,0c2.5,0 4,1.5 4,5.4c0,5.1 -2.6,5.4 -4,5.4l-2.6,0l0,-10.8z" class="st0" id="svg_28"/>
<path stroke="null" d="m3914.103983,2837.026859c13,0 17.3,-12.1 17.3,-24.2s-4.4,-24.2 -17.3,-24.2c-13,0 -17.3,12.1 -17.3,24.2s4.4,24.2 17.3,24.2zm0,-11.4c-3.8,0 -5.8,-4.5 -5.8,-12.8s2,-12.8 5.8,-12.8c3.9,0 5.8,4.5 5.8,12.8c0.1,8.3 -1.9,12.8 -5.8,12.8z" class="st0" id="svg_27"/>
<path stroke="null" d="m3979.003983,2836.426859l13.1,0c2.8,0 14.6,-1.2 14.7,-15.4c0,-12 -9.2,-14.1 -15.1,-14.1l-1.9,0l0,-6.2l14.5,0l0,-11.4l-25.2,0l0,47.1l-0.1,0zm10.8,-9.4l0,-10.7l1.6,0c1.3,0 4.7,0.1 4.7,4.9c0,5 -3.5,5.8 -4.7,5.8l-1.6,0z" class="st0" id="svg_26"/>
<polygon stroke="null" points="4075.10400390625,2836.4268436431885 4064.50439453125,2836.4268436431885 4064.50439453125,2817.6267948150635 4056.80419921875,2817.6267948150635 4056.80419921875,2836.4268436431885 4046.10400390625,2836.4268436431885 4046.10400390625,2789.3269901275635 4056.80419921875,2789.3269901275635 4056.80419921875,2806.3269901275635 4064.50439453125,2806.3269901275635 4064.50439453125,2789.3269901275635 4075.10400390625,2789.3269901275635 " class="st0" id="svg_25"/>
<polygon stroke="null" points="4113.103515625,2789.3269901275635 4104.70361328125,2811.7268924713135 4114.3037109375,2836.4268436431885 4101.7041015625,2836.4268436431885 4095.60400390625,2817.5269412994385 4093.00390625,2817.5269412994385 4093.00390625,2836.4268436431885 4082.30419921875,2836.4268436431885 4082.30419921875,2789.3269901275635 4093.00390625,2789.3269901275635 4093.00390625,2806.3269901275635 4095.30419921875,2806.3269901275635 4101.50439453125,2789.3269901275635 " class="st0" id="svg_24"/>
<polygon stroke="null" points="3742.504150390625,2789.3269901275635 3764.904052734375,2789.3269901275635 3764.904052734375,2801.1267948150635 3753.603759765625,2801.1267948150635 3753.603759765625,2836.4268436431885 3742.504150390625,2836.4268436431885 " class="st0" id="svg_23"/>
<polygon stroke="null" points="3960.803955078125,2836.4268436431885 3960.803955078125,2807.7268924713135 3954.203857421875,2815.9268436431885 3947.603759765625,2807.7268924713135 3947.603759765625,2836.4268436431885 3936.703857421875,2836.4268436431885 3936.703857421875,2789.3269901275635 3946.003662109375,2789.3269901275635 3954.203857421875,2800.4268436431885 3962.404052734375,2789.3269901275635 3971.703857421875,2789.3269901275635 3971.703857421875,2836.4268436431885 " class="st0" id="svg_22"/>
<path stroke="null" d="m4008.903983,2836.526859l11.1,0l1.3,-8.1l7.6,0l1.4,8.1l11.1,0l-9.4,-47.1l-13.8,0l-9.3,47.1zm16.3,-32.9l2.1,14.4l-4.1,0l2,-14.4z" class="st0" id="svg_21"/>
</g>
</g>
</g>
<text stroke="#000" transform="matrix(6.840604861982341,0,0,6.840604861982341,-2013.4164705977773,-1035.3218750369688) " xml:space="preserve" text-anchor="start" font-family="Junction, sans-serif" font-size="24" id="svg_37" y="255.8107" x="397.375941" stroke-width="0" fill="#fff">АС ОРДА</text>
</g>
</svg>