<svg xmlns="http://www.w3.org/2000/svg" width="1313" height="340" viewBox="0 0 1313 340" version="1.1"><path d="M 130.784 44.738 C 133.689 44.941, 138.189 44.939, 140.784 44.734 C 143.378 44.528, 141 44.363, 135.500 44.365 C 130 44.368, 127.878 44.536, 130.784 44.738 M 366.750 79.748 C 374.587 79.917, 387.412 79.917, 395.250 79.748 C 403.087 79.579, 396.675 79.441, 381 79.441 C 365.325 79.441, 358.912 79.579, 366.750 79.748 M 429.345 80.543 C 429.019 81.392, 429.034 82.367, 429.376 82.710 C 429.719 83.053, 430 82.594, 430 81.690 C 430 80.241, 432.037 80.012, 447.250 79.748 L 464.500 79.450 447.219 79.225 C 432.427 79.032, 429.852 79.222, 429.345 80.543 M 572.455 80.257 C 572.185 80.961, 572.093 92.554, 572.250 106.019 L 572.537 130.500 572.769 105.250 L 573 80 610.492 80 L 647.985 80 648.254 140.500 L 648.523 201 648.512 140.250 L 648.500 79.500 610.723 79.238 C 580.747 79.030, 572.845 79.240, 572.455 80.257 M 674.302 79.746 C 679.693 79.926, 688.243 79.925, 693.302 79.744 C 698.361 79.563, 693.950 79.416, 683.500 79.417 C 673.050 79.418, 668.911 79.566, 674.302 79.746 M 847.453 80.262 C 847.187 80.956, 847.095 94.569, 847.250 110.512 L 847.532 139.500 847.766 109.691 L 848 79.882 859.907 80.191 C 866.456 80.361, 871.605 80.162, 871.348 79.750 C 871.092 79.338, 865.719 79, 859.410 79 C 851.095 79, 847.804 79.347, 847.453 80.262 M 911.946 80.720 C 910.795 82.238, 910.802 82.316, 911.998 81.250 C 912.944 80.407, 917.073 80, 924.692 80 L 935.985 80 936.254 140.500 L 936.523 201 936.512 140.250 L 936.500 79.500 924.898 79.220 C 914.742 78.974, 913.127 79.161, 911.946 80.720 M 955.680 79.653 C 955.306 80.027, 955 107.483, 955 140.667 L 955 201 975.250 200.772 L 995.500 200.545 975.750 200.251 L 956 199.958 956 139.979 L 956 80 987.500 80 L 1019 80 1019 93.977 L 1019 107.955 1000.750 108.227 L 982.500 108.500 982.439 116.500 L 982.379 124.500 982.730 116.750 L 983.081 109 1001.567 109 L 1020.053 109 1019.777 94.250 L 1019.500 79.500 987.930 79.236 C 970.567 79.091, 956.055 79.279, 955.680 79.653 M 1126.470 80.221 C 1126.201 80.924, 1126.102 108.500, 1126.249 141.500 L 1126.516 201.500 1126.758 140.750 L 1127 80 1139.980 80 L 1152.961 80 1153.230 101.750 L 1153.500 123.500 1163.252 123.557 L 1173.005 123.615 1163.522 123.271 L 1154.039 122.928 1153.769 101.214 L 1153.500 79.500 1140.230 79.221 C 1130.167 79.009, 1126.841 79.251, 1126.470 80.221 M 1186.991 79.734 L 1199.985 80.058 1200.254 140.529 L 1200.523 201 1200.512 140.250 L 1200.500 79.500 1187.249 79.455 L 1173.997 79.409 1186.991 79.734 M 1218.470 80.221 C 1218.201 80.924, 1218.102 108.500, 1218.249 141.500 L 1218.516 201.500 1218.758 140.750 L 1219 80 1231.980 80 L 1244.961 80 1245.230 101.750 L 1245.500 123.500 1248.500 123.593 C 1251.290 123.680, 1251.309 123.658, 1248.769 123.281 L 1246.039 122.876 1245.769 101.188 L 1245.500 79.500 1232.230 79.221 C 1222.167 79.009, 1218.841 79.251, 1218.470 80.221 M 1267.669 79.723 C 1267.404 80.150, 1273.515 80.363, 1281.250 80.195 C 1291.958 79.964, 1295.534 80.202, 1296.233 81.195 C 1296.947 82.209, 1297.061 82.165, 1296.744 81 C 1296.411 79.774, 1293.760 79.449, 1282.244 79.223 C 1274.493 79.071, 1267.934 79.296, 1267.669 79.723 M 132.250 80.739 C 135.412 80.937, 140.588 80.937, 143.750 80.739 C 146.912 80.541, 144.325 80.378, 138 80.378 C 131.675 80.378, 129.088 80.541, 132.250 80.739 M 500.392 95 C 500.392 102.425, 500.549 105.463, 500.742 101.750 C 500.934 98.037, 500.934 91.963, 500.742 88.250 C 500.549 84.537, 500.392 87.575, 500.392 95 M 157.250 101.728 C 159.313 101.944, 162.688 101.944, 164.750 101.728 C 166.813 101.513, 165.125 101.336, 161 101.336 C 156.875 101.336, 155.188 101.513, 157.250 101.728 M 692.223 120.250 L 692.500 134.500 696.757 134.598 L 701.015 134.696 697.007 134.291 L 693 133.885 693 120.497 L 693 107.110 697.750 106.735 L 702.500 106.360 697.223 106.180 L 691.945 106 692.223 120.250 M 600.461 155 C 600.461 180.575, 600.591 191.038, 600.749 178.250 C 600.907 165.463, 600.907 144.538, 600.749 131.750 C 600.591 118.963, 600.461 129.425, 600.461 155 M 380.461 155.500 C 380.461 180.800, 380.591 191.007, 380.749 178.181 C 380.908 165.356, 380.907 144.656, 380.749 132.181 C 380.590 119.707, 380.461 130.200, 380.461 155.500 M 906.405 129.233 C 904.883 131.017, 904.849 131.195, 906.237 130.121 C 907.879 128.850, 907.990 130.781, 908.250 165.138 L 908.526 201.500 908.763 164.250 C 908.893 143.762, 908.845 127, 908.655 127 C 908.465 127, 907.453 128.005, 906.405 129.233 M 503.217 140.750 L 503 154 509.750 153.807 L 516.500 153.615 510.280 153.260 L 504.059 152.906 503.747 140.203 L 503.435 127.500 503.217 140.750 M 745.365 139.500 C 745.368 145, 745.536 147.122, 745.738 144.216 C 745.941 141.311, 745.939 136.811, 745.734 134.216 C 745.528 131.622, 745.363 134, 745.365 139.500 M 274.349 140 C 274.349 144.675, 274.522 146.588, 274.732 144.250 C 274.943 141.912, 274.943 138.088, 274.732 135.750 C 274.522 133.412, 274.349 135.325, 274.349 140 M 804.355 140.500 C 804.352 145.450, 804.521 147.601, 804.731 145.280 C 804.940 142.959, 804.943 138.909, 804.736 136.280 C 804.530 133.651, 804.358 135.550, 804.355 140.500 M 982.219 162.750 L 982 177 985.750 176.840 C 989.402 176.684, 989.416 176.669, 986.278 176.279 L 983.056 175.877 982.747 162.189 L 982.439 148.500 982.219 162.750 M 452 151.448 C 452 152.481, 450.497 153.001, 446.750 153.263 L 441.500 153.630 447.250 153.815 C 452.395 153.981, 453 153.790, 453 152 C 453 150.900, 452.775 150, 452.500 150 C 452.225 150, 452 150.651, 452 151.448 M 1153.231 176.750 L 1153.463 201.500 1153.749 177.286 L 1154.035 153.072 1163.768 152.745 L 1173.500 152.419 1163.250 152.209 L 1153 152 1153.231 176.750 M 1245.231 176.750 L 1245.463 201.500 1245.749 177.143 L 1246.036 152.785 1249.518 153.192 C 1251.433 153.415, 1253 153.239, 1253 152.799 C 1253 152.360, 1251.200 152, 1249 152 L 1245 152 1245.231 176.750 M 692.422 181 C 692.422 192.275, 692.568 196.887, 692.746 191.250 C 692.924 185.613, 692.924 176.387, 692.746 170.750 C 692.568 165.113, 692.422 169.725, 692.422 181 M 497.374 188.500 C 497.376 194.550, 497.541 196.896, 497.740 193.713 C 497.939 190.531, 497.937 185.581, 497.736 182.713 C 497.535 179.846, 497.372 182.450, 497.374 188.500 M 151.784 186.738 C 154.689 186.941, 159.189 186.939, 161.784 186.734 C 164.378 186.528, 162 186.363, 156.500 186.365 C 151 186.368, 148.878 186.536, 151.784 186.738 M 148.250 193.728 C 150.313 193.944, 153.688 193.944, 155.750 193.728 C 157.813 193.513, 156.125 193.336, 152 193.336 C 147.875 193.336, 146.188 193.513, 148.250 193.728 M 1267.256 199 C 1267.594 200.240, 1270.469 200.548, 1283.832 200.775 C 1292.725 200.926, 1300.001 200.701, 1300.001 200.275 C 1300.002 199.849, 1292.955 199.635, 1284.342 199.800 C 1272.351 200.031, 1268.466 199.796, 1267.764 198.800 C 1267.055 197.794, 1266.940 197.839, 1267.256 199 M 854.250 201.742 C 857.962 201.934, 864.038 201.934, 867.750 201.742 C 871.462 201.549, 868.425 201.392, 861 201.392 C 853.575 201.392, 850.538 201.549, 854.250 201.742 M 517.776 204.733 C 520.128 204.945, 523.728 204.942, 525.776 204.727 C 527.824 204.512, 525.900 204.339, 521.500 204.343 C 517.100 204.346, 515.424 204.522, 517.776 204.733 M 146.250 210.742 C 149.963 210.934, 156.037 210.934, 159.750 210.742 C 163.463 210.549, 160.425 210.392, 153 210.392 C 145.575 210.392, 142.537 210.549, 146.250 210.742 M 144.250 220.742 C 147.963 220.934, 154.037 220.934, 157.750 220.742 C 161.463 220.549, 158.425 220.392, 151 220.392 C 143.575 220.392, 140.537 220.549, 144.250 220.742 M 231 234.500 C 226.903 238.625, 223.775 242, 224.050 242 C 224.325 242, 227.903 238.625, 232 234.500 C 236.097 230.375, 239.225 227, 238.950 227 C 238.675 227, 235.097 230.375, 231 234.500 M 37 228.275 C 37 228.426, 40.487 231.914, 44.750 236.025 L 52.500 243.500 45.025 235.750 C 40.914 231.488, 37.426 228, 37.275 228 C 37.124 228, 37 228.124, 37 228.275 M 132.280 277.736 C 134.909 277.943, 138.959 277.940, 141.280 277.731 C 143.601 277.521, 141.450 277.352, 136.500 277.355 C 131.550 277.358, 129.651 277.530, 132.280 277.736" stroke="none" fill="#fff" fill-rule="evenodd"/><path d="M 125.008 3.117 C 119.787 3.580, 113.037 4.465, 110.008 5.083 C 106.979 5.702, 100.225 7.559, 95 9.211 C 89.775 10.863, 81.088 14.471, 75.695 17.228 C 70.301 19.986, 62.244 24.848, 57.788 28.033 C 53.332 31.218, 46.110 37.351, 41.738 41.662 C 37.366 45.973, 31.773 52.102, 29.310 55.283 C 26.847 58.464, 22.391 65.197, 19.408 70.245 C 16.425 75.293, 12.246 83.941, 10.121 89.462 C 7.997 94.983, 5.300 103.606, 4.129 108.625 C 2.957 113.644, 1.581 122.882, 1.070 129.154 C 0.505 136.082, 0.498 144.670, 1.050 151.038 C 1.551 156.802, 2.428 163.990, 2.999 167.009 C 3.570 170.029, 5.189 176.281, 6.597 180.901 C 8.005 185.522, 10.882 193.037, 12.990 197.600 C 15.098 202.163, 19.893 210.533, 23.645 216.199 C 27.975 222.738, 34.308 230.349, 40.983 237.040 C 46.967 243.037, 55.163 249.994, 60 253.182 C 64.675 256.263, 72.100 260.578, 76.500 262.769 C 80.900 264.961, 88.550 268.128, 93.500 269.809 C 98.450 271.489, 105.875 273.598, 110 274.495 C 114.125 275.392, 124.025 276.376, 132 276.681 C 142.818 277.096, 149.080 276.824, 156.661 275.612 C 162.250 274.718, 170.800 272.835, 175.661 271.427 C 180.522 270.019, 187.891 267.398, 192.036 265.602 C 196.181 263.807, 202.706 260.507, 206.536 258.270 C 210.366 256.033, 216.200 252.117, 219.500 249.567 C 222.800 247.017, 229.030 241.459, 233.345 237.216 C 237.659 232.972, 243.816 226.025, 247.027 221.779 C 250.237 217.532, 254.892 210.332, 257.370 205.779 C 259.849 201.225, 263.249 193.772, 264.926 189.216 C 266.603 184.660, 268.847 177.460, 269.914 173.216 C 270.980 168.972, 272.398 161.058, 273.065 155.628 C 273.797 149.666, 274.044 140.756, 273.688 133.128 C 273.363 126.183, 272.201 116.450, 271.105 111.500 C 270.008 106.550, 268.025 99.346, 266.697 95.490 C 265.369 91.635, 262.676 85.002, 260.711 80.751 C 258.747 76.500, 254.713 69.304, 251.746 64.761 C 248.779 60.217, 243.736 53.424, 240.540 49.664 C 237.343 45.903, 231.302 39.895, 227.114 36.310 C 222.926 32.726, 215.521 27.165, 210.657 23.951 C 205.794 20.738, 196.981 16.069, 191.073 13.575 C 185.165 11.082, 175.644 7.915, 169.916 6.539 C 164.187 5.163, 154.325 3.583, 148 3.027 C 141.675 2.472, 136.050 2.075, 135.500 2.146 C 134.950 2.217, 130.229 2.654, 125.008 3.117 M 127 8.075 C 122.325 8.479, 115.655 9.328, 112.179 9.961 C 108.702 10.595, 101.727 12.498, 96.679 14.189 C 91.630 15.880, 84.579 18.576, 81.010 20.178 C 77.440 21.781, 71.176 25.176, 67.090 27.723 C 63.003 30.270, 56.473 34.995, 52.580 38.223 C 48.686 41.451, 42.455 47.558, 38.733 51.796 C 35.011 56.033, 29.913 62.549, 27.403 66.275 C 24.893 70.001, 20.836 76.976, 18.387 81.775 C 15.938 86.574, 12.645 94.550, 11.069 99.500 C 9.494 104.450, 7.483 112.742, 6.602 117.926 C 5.692 123.282, 5 133.030, 5 140.500 C 5 147.852, 5.697 157.803, 6.582 163.074 C 7.453 168.258, 9.676 177.072, 11.524 182.660 C 13.372 188.248, 16.534 196.123, 18.551 200.160 C 20.567 204.197, 24.598 211.100, 27.509 215.500 C 30.419 219.900, 36.432 227.380, 40.870 232.122 C 45.309 236.864, 52.891 243.739, 57.720 247.400 C 62.549 251.061, 71.900 256.699, 78.500 259.929 C 85.100 263.160, 93.425 266.715, 97 267.830 C 100.575 268.945, 106.875 270.623, 111 271.559 C 115.125 272.495, 124.575 273.480, 132 273.748 C 141.617 274.095, 148.744 273.759, 156.778 272.579 C 162.981 271.668, 172.096 269.602, 177.034 267.989 C 181.972 266.375, 189.407 263.487, 193.556 261.569 C 197.705 259.652, 205.465 255.218, 210.800 251.716 C 216.135 248.213, 224.230 241.831, 228.788 237.534 C 233.347 233.236, 239.975 225.858, 243.518 221.138 C 247.061 216.417, 252.437 207.593, 255.465 201.527 C 258.493 195.462, 262.284 186.429, 263.890 181.452 C 265.495 176.476, 267.581 167.787, 268.524 162.144 C 269.828 154.348, 270.124 148.236, 269.757 136.692 C 269.426 126.296, 268.608 118.624, 267.165 112.389 C 266.006 107.378, 263.869 99.953, 262.416 95.889 C 260.964 91.825, 257.585 84.225, 254.908 79 C 252.230 73.775, 247.129 65.634, 243.572 60.908 C 240.014 56.182, 233.256 48.674, 228.554 44.223 C 223.852 39.772, 216.252 33.633, 211.666 30.582 C 207.080 27.531, 198.642 22.796, 192.914 20.060 C 187.186 17.324, 178.225 13.970, 173 12.607 C 167.775 11.244, 160.125 9.667, 156 9.101 C 151.875 8.536, 145.575 7.909, 142 7.707 C 138.425 7.506, 131.675 7.671, 127 8.075 M 129 39.009 C 124.325 39.451, 116.675 40.773, 112 41.945 C 107.325 43.118, 100.006 45.463, 95.736 47.157 C 91.466 48.850, 87.727 50.633, 87.427 51.118 C 87.127 51.603, 87.077 52, 87.315 52 C 87.554 52, 89.645 51.331, 91.962 50.513 C 94.279 49.696, 101.198 48.040, 107.338 46.834 C 115.893 45.154, 122.237 44.631, 134.500 44.597 C 143.963 44.570, 152.952 45.078, 156.500 45.840 C 159.800 46.549, 165.425 48.062, 169 49.204 C 172.575 50.346, 178.002 52.530, 181.060 54.058 C 184.118 55.586, 187.219 57.559, 187.952 58.443 C 188.685 59.326, 189.108 60.215, 188.893 60.419 C 188.677 60.622, 183.792 59.726, 178.038 58.426 C 172.284 57.126, 161.259 55.575, 153.538 54.978 C 143.809 54.227, 136.277 54.205, 129 54.908 C 123.225 55.466, 113.849 56.859, 108.165 58.005 C 102.480 59.150, 92.597 61.673, 86.203 63.611 C 79.808 65.549, 71.373 68.615, 67.459 70.424 C 62.870 72.544, 59.524 74.860, 58.041 76.943 L 55.741 80.173 59.821 78.091 C 62.065 76.946, 66.286 75.056, 69.201 73.891 C 72.115 72.725, 79 70.467, 84.500 68.873 C 90 67.279, 99.675 65.020, 106 63.854 C 113.758 62.423, 123.195 61.587, 135 61.284 C 147.805 60.955, 155.270 61.255, 162.824 62.402 C 168.502 63.264, 176.715 64.947, 181.074 66.142 C 187.164 67.811, 189 68.723, 189 70.080 C 189 71.051, 187.676 73.170, 186.057 74.789 L 183.115 77.731 175.307 76.371 C 171.013 75.623, 160.975 74.578, 153 74.049 C 143.889 73.445, 133.854 73.435, 126 74.022 C 119.125 74.535, 111.025 75.374, 108 75.885 C 104.975 76.396, 99.691 77.543, 96.258 78.433 C 92.825 79.323, 86.075 81.427, 81.258 83.109 C 76.441 84.791, 67.939 88.564, 62.364 91.494 C 56.789 94.424, 50.347 98.066, 48.048 99.587 C 45.750 101.108, 43.224 103.601, 42.435 105.127 C 41.646 106.652, 41 108.119, 41 108.386 C 41 108.653, 45.113 106.441, 50.140 103.470 C 55.167 100.500, 64.054 96.064, 69.890 93.613 C 75.725 91.163, 84.775 88.010, 90 86.607 C 95.225 85.204, 103.697 83.385, 108.827 82.565 C 113.956 81.744, 123.181 80.772, 129.327 80.406 C 135.807 80.019, 146.239 80.241, 154.164 80.933 C 161.678 81.590, 169.103 82.493, 170.664 82.940 C 172.640 83.507, 173.045 83.928, 172 84.330 C 171.175 84.648, 168.025 85.583, 165 86.410 C 161.975 87.236, 151.625 89.286, 142 90.964 C 132.375 92.643, 119.325 95.176, 113 96.594 C 106.675 98.011, 97 100.519, 91.500 102.168 C 86 103.816, 78.350 106.279, 74.500 107.640 C 70.650 109.002, 64.189 111.769, 60.142 113.789 C 56.095 115.810, 49.971 120.041, 46.532 123.191 C 42.292 127.077, 39.557 130.602, 38.032 134.148 C 36.396 137.951, 35.918 140.581, 36.280 143.792 C 36.554 146.221, 37.778 149.561, 39 151.213 C 40.853 153.720, 41.037 154.623, 40.111 156.656 C 39.500 157.997, 39 160.707, 39 162.679 C 39 164.651, 39.932 167.771, 41.071 169.614 C 42.209 171.457, 44.448 173.895, 46.045 175.032 C 48.702 176.924, 48.897 177.470, 48.348 181.479 C 48.018 183.887, 48.048 187.054, 48.415 188.515 C 48.781 189.977, 51.161 193.396, 53.703 196.114 C 56.245 198.831, 60.052 202.025, 62.162 203.211 C 64.273 204.398, 66 205.978, 66 206.724 C 66 207.470, 66.914 209.872, 68.032 212.063 C 69.302 214.553, 73.139 218.477, 78.269 222.534 C 82.782 226.102, 90.099 230.792, 94.529 232.957 C 98.959 235.121, 105.939 237.810, 110.042 238.933 C 114.144 240.055, 121.888 241.426, 127.250 241.979 C 133.788 242.654, 140.212 242.654, 146.750 241.979 C 152.113 241.426, 159.701 240.098, 163.612 239.027 C 167.524 237.957, 173.149 235.943, 176.112 234.551 C 179.076 233.159, 180.551 232.251, 179.390 232.533 C 178.230 232.815, 174.180 233.735, 170.390 234.577 C 166.601 235.419, 156.511 236.369, 147.969 236.689 C 135.512 237.155, 130.764 236.931, 123.984 235.557 C 119.335 234.615, 112.149 232.538, 108.016 230.941 C 103.882 229.344, 97.125 226.046, 93 223.613 C 88.875 221.180, 83.566 217.519, 81.202 215.476 C 78.838 213.433, 77.082 211.585, 77.299 211.368 C 77.516 211.151, 82.375 212.983, 88.097 215.441 C 93.819 217.898, 103.712 221.252, 110.082 222.894 C 116.607 224.575, 127.205 226.379, 134.352 227.026 C 143.916 227.890, 149.681 227.888, 157.770 227.018 C 163.671 226.384, 171.650 225.219, 175.500 224.431 C 179.350 223.643, 187.604 221.365, 193.843 219.371 C 200.082 217.376, 206.382 214.709, 207.843 213.445 L 210.500 211.146 203.500 213.099 C 199.650 214.173, 190.875 216.240, 184 217.694 C 173.131 219.991, 169.020 220.346, 152.500 220.417 C 138.001 220.479, 131.368 220.074, 124.500 218.708 C 119.550 217.724, 111 215.548, 105.500 213.872 C 100 212.197, 91.113 208.772, 85.750 206.262 C 79.693 203.427, 76 201.122, 76 200.178 C 76 199.342, 76.709 197.874, 77.575 196.917 C 79.066 195.270, 79.539 195.336, 86.325 198.144 C 90.271 199.776, 98 202.458, 103.500 204.103 C 109 205.748, 118.421 207.748, 124.436 208.547 C 130.451 209.346, 142.376 209.998, 150.936 209.996 C 160.050 209.994, 170.437 209.360, 176 208.466 C 181.225 207.627, 189.587 205.860, 194.582 204.539 C 199.577 203.218, 208.034 200.464, 213.376 198.419 C 218.719 196.375, 223.501 193.932, 224.004 192.992 C 224.781 191.541, 223.660 191.705, 216.614 194.073 C 212.046 195.608, 201.601 198.220, 193.404 199.877 C 185.207 201.534, 172.875 203.351, 166 203.916 C 157.780 204.591, 149.562 204.615, 142 203.987 C 135.675 203.461, 127.125 202.368, 123 201.559 C 118.875 200.749, 113.025 199.363, 110 198.480 C 106.975 197.596, 100.789 195.439, 96.254 193.687 C 91.718 191.934, 88.006 190.226, 88.004 189.891 C 88.002 189.556, 90.851 188.346, 94.335 187.202 L 100.671 185.122 110.085 187.577 C 115.263 188.928, 124.586 190.700, 130.801 191.516 C 137.017 192.332, 146.242 192.991, 151.301 192.980 C 156.361 192.970, 165.225 192.331, 171 191.561 C 176.775 190.791, 187.035 188.762, 193.800 187.053 C 200.565 185.344, 209.115 182.813, 212.800 181.429 C 216.485 180.046, 222.718 177.326, 226.652 175.386 C 231.152 173.166, 233.998 171.114, 234.329 169.850 C 234.670 168.544, 234.442 168.022, 233.677 168.358 C 233.030 168.642, 227.550 170.910, 221.500 173.398 C 215.450 175.887, 205.325 179.249, 199 180.870 C 192.675 182.490, 181.946 184.533, 175.158 185.408 C 168.370 186.284, 160.045 186.996, 156.658 186.992 C 153.271 186.987, 146.473 186.522, 141.550 185.958 C 136.628 185.394, 129.509 184.230, 125.730 183.370 C 121.951 182.511, 119.004 181.663, 119.180 181.486 C 119.357 181.310, 128.951 179.529, 140.501 177.529 C 152.050 175.530, 168.475 172.388, 177 170.547 C 185.525 168.706, 196.435 165.764, 201.244 164.008 C 206.054 162.252, 213.704 158.585, 218.244 155.859 C 222.785 153.133, 228.195 149.250, 230.267 147.231 C 232.339 145.212, 234.894 141.747, 235.946 139.530 C 236.997 137.314, 237.939 134.375, 238.039 133 C 238.139 131.625, 238.172 129.503, 238.111 128.285 C 238.050 127.066, 236.587 124.460, 234.859 122.492 C 232.087 119.335, 231.852 118.620, 232.859 116.410 C 233.487 115.033, 234 112.083, 234 109.854 C 234 107.626, 233.267 104.257, 232.370 102.368 C 231.474 100.479, 228.999 97.443, 226.870 95.621 C 224.159 93.300, 223 91.504, 223 89.622 C 223 88.145, 222.336 85.347, 221.525 83.406 C 220.714 81.464, 217.657 77.539, 214.731 74.683 C 211.806 71.826, 207.632 68.676, 205.456 67.683 C 202.657 66.404, 200.962 64.721, 199.662 61.925 C 198.437 59.293, 195.768 56.518, 191.662 53.607 C 188.273 51.205, 183.125 48.046, 180.221 46.588 C 177.318 45.130, 170.793 42.862, 165.721 41.547 C 160.650 40.232, 152.225 38.942, 147 38.680 C 141.775 38.419, 133.675 38.567, 129 39.009 M 198.068 76.904 C 196.931 78.502, 196 80.035, 196 80.313 C 196 80.590, 198.787 81.758, 202.194 82.908 C 205.601 84.059, 208.988 85, 209.720 85 C 210.785 85, 210.746 84.410, 209.527 82.052 C 208.688 80.430, 206.497 77.955, 204.657 76.552 C 202.817 75.148, 201.047 74, 200.724 74 C 200.401 74, 199.206 75.307, 198.068 76.904 M 780.166 79.489 C 776.682 80.270, 771.941 82.016, 769.631 83.370 C 767.321 84.724, 763.375 88.030, 760.862 90.717 C 758.348 93.404, 754.885 98.549, 753.166 102.151 C 751.447 105.754, 749.256 111.806, 748.296 115.600 C 746.944 120.947, 746.563 126.550, 746.603 140.500 C 746.646 155.604, 746.993 159.730, 748.759 166.144 C 749.916 170.347, 752.279 176.591, 754.009 180.019 C 755.740 183.446, 759.308 188.403, 761.939 191.034 C 764.570 193.665, 768.473 196.703, 770.611 197.786 C 772.750 198.868, 776.885 200.259, 779.799 200.877 C 782.714 201.495, 787.214 201.993, 789.799 201.984 C 792.385 201.976, 797.041 201.371, 800.147 200.640 C 803.254 199.908, 807.779 198.147, 810.205 196.726 C 812.631 195.304, 816.431 192.172, 818.649 189.765 C 820.868 187.357, 824.095 182.488, 825.820 178.944 C 827.545 175.400, 829.649 169.800, 830.495 166.500 C 831.342 163.200, 832.502 156.332, 833.073 151.239 C 833.787 144.875, 833.792 138.544, 833.088 131.006 C 832.525 124.971, 831.339 117.214, 830.453 113.767 C 829.567 110.320, 827.479 104.803, 825.813 101.508 C 824.147 98.212, 821.506 93.902, 819.944 91.930 C 818.383 89.958, 815.339 87.121, 813.180 85.625 C 811.021 84.129, 807.060 82.073, 804.378 81.055 C 801.695 80.038, 796.575 78.950, 793 78.637 C 788.955 78.284, 784.107 78.605, 780.166 79.489 M 518 79.619 C 516.075 79.812, 511.462 80.467, 507.750 81.075 L 501 82.182 501 95.046 L 501 107.911 505.149 106.447 C 507.431 105.642, 511.677 104.929, 514.584 104.862 C 518.175 104.779, 520.933 105.359, 523.185 106.671 C 525.305 107.906, 526.931 109.903, 527.694 112.210 C 528.529 114.731, 528.595 116.881, 527.915 119.345 C 527.380 121.285, 525.570 124.025, 523.894 125.436 C 521.151 127.744, 520.005 128, 512.423 128 L 504 128 504 140.500 L 504 153 509.250 153.044 C 512.138 153.068, 516.464 153.466, 518.864 153.930 C 521.281 154.397, 524.325 155.871, 525.689 157.234 C 527.147 158.692, 528.367 161.320, 528.685 163.685 C 529.039 166.327, 528.670 168.737, 527.593 170.820 C 526.698 172.551, 524.646 174.649, 523.033 175.483 C 521.385 176.335, 517.518 177, 514.209 177 C 510.969 177, 506.109 176.330, 503.409 175.511 C 500.709 174.692, 498.387 174.017, 498.250 174.011 C 498.113 174.005, 498 179.593, 498 186.428 L 498 198.856 503.750 201.158 C 508.674 203.129, 511.311 203.463, 522.101 203.480 C 534.545 203.500, 534.787 203.457, 541.563 200 C 546.531 197.466, 549.476 195.120, 552.234 191.500 C 554.328 188.750, 556.760 184.069, 557.636 181.098 C 558.758 177.295, 559.101 173.152, 558.794 167.098 C 558.484 160.981, 557.753 157.331, 556.259 154.447 C 555.105 152.218, 552.662 148.916, 550.830 147.109 C 548.999 145.302, 545.708 142.901, 543.517 141.773 L 539.534 139.722 542.008 138.111 C 543.369 137.225, 546.206 134.956, 548.313 133.068 C 550.421 131.181, 553.025 127.910, 554.102 125.801 C 555.178 123.691, 556.476 119.761, 556.987 117.067 C 557.576 113.961, 557.551 109.902, 556.918 105.973 C 556.369 102.565, 554.835 97.635, 553.509 95.018 C 552.183 92.402, 549.614 89.005, 547.799 87.470 C 545.985 85.936, 542.250 83.671, 539.500 82.437 C 536.692 81.177, 531.650 79.991, 528 79.731 C 524.425 79.477, 519.925 79.427, 518 79.619 M 352 140.500 L 352 201 366 201 L 380 201 380 155.500 L 380 110 394.500 110 L 409 110 409 95 L 409 80 380.500 80 L 352 80 352 140.500 M 429.674 82.250 C 429.376 83.487, 424.152 109.925, 418.065 141 C 411.978 172.075, 406.815 198.287, 406.592 199.250 C 406.222 200.852, 407.357 201, 419.991 201 L 433.795 201 434.825 194.750 C 435.392 191.313, 436.153 186.588, 436.516 184.250 L 437.176 180 447.451 180 L 457.726 180 458.908 187.750 C 459.558 192.012, 460.330 196.738, 460.624 198.250 L 461.159 201 474.579 201 C 484.637 201, 488.006 200.687, 488.024 199.750 C 488.037 199.063, 482.763 171.838, 476.304 139.250 L 464.561 80 447.389 80 C 430.408 80, 430.211 80.025, 429.674 82.250 M 573 140.500 L 573 201 586.500 201 L 600 201 600 155 L 600 109 610.500 109 L 621 109 621 155 L 621 201 634.500 201 L 648 201 648 140.500 L 648 80 610.500 80 L 573 80 573 140.500 M 665 140.432 L 665 201 678.500 201 L 692 201 692 181.143 L 692 161.287 701.073 160.602 C 706.068 160.225, 712.573 159.009, 715.544 157.898 C 718.734 156.704, 722.814 154.059, 725.517 151.432 C 728.033 148.986, 731.388 144.245, 732.972 140.895 C 734.556 137.546, 736.373 131.718, 737.009 127.944 C 737.874 122.818, 737.883 119.254, 737.045 113.854 C 736.429 109.879, 734.547 103.742, 732.864 100.216 C 731.181 96.690, 728.003 92.003, 725.800 89.800 C 723.598 87.598, 719.254 84.604, 716.148 83.148 C 710.638 80.565, 709.945 80.492, 687.750 80.182 L 665 79.865 665 140.432 M 847.995 95.750 C 847.993 104.412, 847.695 131.637, 847.333 156.250 L 846.676 201 860.826 201 L 874.976 201 875.238 163.992 L 875.500 126.984 883.297 136.992 C 887.585 142.496, 891.410 146.979, 891.797 146.952 C 892.183 146.926, 896.100 142.333, 900.500 136.746 L 908.500 126.588 908.762 163.794 L 909.024 201 922.512 201 L 936 201 936 140.500 L 936 80 924.563 80 L 913.127 80 902.823 94 C 897.156 101.700, 892.215 108, 891.844 108 C 891.473 108, 886.578 101.700, 880.965 94 L 870.760 80 859.380 80 L 848 80 847.995 95.750 M 956 140 L 956 200 975.818 200 C 990.588 200, 996.933 199.615, 1000.725 198.489 C 1003.524 197.658, 1007.967 195.494, 1010.599 193.681 C 1013.230 191.867, 1016.875 188.219, 1018.698 185.573 C 1020.521 182.927, 1022.730 178.296, 1023.607 175.281 C 1024.502 172.203, 1025.200 166.128, 1025.200 161.422 C 1025.200 156.193, 1024.535 150.929, 1023.430 147.417 C 1022.231 143.605, 1020.107 140.090, 1016.850 136.526 C 1013.964 133.369, 1010.106 130.431, 1007.205 129.183 C 1004.545 128.039, 999.473 126.633, 995.934 126.059 C 992.395 125.485, 987.794 125.012, 985.710 125.008 L 981.919 125 982.210 116.750 L 982.500 108.500 1000.750 108.227 L 1019 107.955 1019 93.977 L 1019 80 987.500 80 L 956 80 956 140 M 1055.505 82.226 C 1055.205 83.477, 1049.794 110.364, 1043.480 141.975 C 1037.166 173.587, 1032 199.812, 1032 200.254 C 1032 200.695, 1038.176 200.931, 1045.724 200.778 L 1059.449 200.500 1061.162 190.500 C 1062.105 185, 1062.904 180.387, 1062.938 180.250 C 1062.972 180.113, 1067.500 180, 1073 180 C 1078.500 180, 1083.028 180.113, 1083.062 180.250 C 1083.096 180.387, 1083.895 185, 1084.838 190.500 L 1086.551 200.500 1100.326 200.779 L 1114.101 201.057 1113.398 197.279 C 1113.011 195.200, 1107.683 168.075, 1101.558 137 L 1090.422 80.500 1073.236 80.226 C 1056.085 79.954, 1056.049 79.958, 1055.505 82.226 M 1127 140.500 L 1127 201 1140 201 L 1153 201 1153 176.500 L 1153 152 1163 152 L 1173 152 1173 176.500 L 1173 201 1186.500 201 L 1200 201 1200 140.500 L 1200 80 1186.500 80 L 1173 80 1173 102.036 L 1173 124.072 1163.250 123.786 L 1153.500 123.500 1153.230 101.750 L 1152.961 80 1139.980 80 L 1127 80 1127 140.500 M 1219 140.500 L 1219 201 1232 201 L 1245 201 1245 176.500 L 1245 152 1248.772 152 L 1252.544 152 1260.293 176 L 1268.043 200 1283.521 200 C 1292.035 200, 1299 199.813, 1299 199.584 C 1299 199.356, 1293.758 185.518, 1287.352 168.834 C 1280.945 152.150, 1275.741 137.825, 1275.787 137 C 1275.832 136.175, 1280.397 123.350, 1285.931 108.500 C 1291.465 93.650, 1295.994 81.150, 1295.996 80.723 C 1295.998 80.295, 1289.599 80.070, 1281.775 80.223 L 1267.550 80.500 1263.754 91 C 1261.667 96.775, 1258.110 106.587, 1255.850 112.804 L 1251.742 124.108 1248.621 123.804 L 1245.500 123.500 1245.230 101.750 L 1244.961 80 1231.980 80 L 1219 80 1219 140.500 M 184.500 89.591 C 182.300 90.981, 179.375 92.595, 178 93.176 C 175.756 94.124, 176.575 94.524, 186 97.082 C 191.775 98.649, 197.457 100.207, 198.627 100.543 C 200.149 100.981, 201.783 100.251, 204.377 97.974 C 206.370 96.224, 208 94.463, 208 94.060 C 208 93.656, 203.838 91.898, 198.750 90.151 C 193.662 88.405, 189.275 86.996, 189 87.019 C 188.725 87.043, 186.700 88.200, 184.500 89.591 M 216.690 102.802 L 213.885 105.729 218.189 108.271 C 220.557 109.669, 222.833 110.603, 223.247 110.347 C 223.661 110.091, 224 108.809, 224 107.497 C 224 106.185, 222.986 103.933, 221.747 102.493 L 219.495 99.874 216.690 102.802 M 142.500 102.965 C 135.900 103.935, 126.675 105.495, 122 106.431 C 117.325 107.367, 106.629 109.914, 98.232 112.091 C 89.834 114.268, 78.748 117.575, 73.595 119.441 C 68.442 121.306, 62.712 123.607, 60.863 124.554 C 59.013 125.501, 55.543 127.672, 53.151 129.378 C 50.760 131.085, 48.172 133.700, 47.401 135.191 C 46.631 136.681, 46 139.408, 46 141.250 C 46 143.093, 46.513 145.113, 47.141 145.741 C 47.995 146.595, 49.439 145.906, 52.891 142.997 C 55.426 140.860, 60.915 137.556, 65.090 135.654 C 69.264 133.753, 77.034 130.802, 82.356 129.097 C 87.678 127.392, 99.338 124.441, 108.266 122.539 C 117.195 120.636, 132.150 117.686, 141.500 115.983 C 150.850 114.280, 164.688 111.492, 172.250 109.787 C 179.813 108.082, 186 106.379, 186 106.002 C 186 105.625, 184.313 104.817, 182.250 104.207 C 180.188 103.597, 175.575 102.629, 172 102.056 C 168.425 101.484, 163.025 101.057, 160 101.108 C 156.975 101.159, 149.100 101.995, 142.500 102.965 M 692.223 120.250 L 692.500 134.500 697.597 134.466 C 700.672 134.445, 703.730 133.752, 705.307 132.718 C 706.941 131.648, 708.352 129.410, 709.069 126.753 C 709.699 124.414, 709.957 120.306, 709.640 117.624 C 709.323 114.941, 708.351 111.659, 707.480 110.329 C 706.608 108.999, 704.765 107.481, 703.383 106.955 C 702.001 106.430, 698.862 106, 696.407 106 L 691.945 106 692.223 120.250 M 783.873 108.684 C 782.428 109.580, 780.525 111.534, 779.645 113.024 C 778.764 114.515, 777.359 118.364, 776.522 121.577 C 775.560 125.268, 775 131.928, 775 139.661 C 775 146.393, 775.505 154.286, 776.123 157.201 C 776.741 160.115, 778.085 164.158, 779.110 166.184 C 780.135 168.210, 781.979 170.573, 783.209 171.434 C 784.439 172.295, 787.415 173, 789.823 173 C 793.447 173, 794.771 172.429, 797.520 169.680 C 799.630 167.570, 801.494 164.200, 802.635 160.430 C 803.994 155.940, 804.430 151.100, 804.430 140.500 C 804.430 129.933, 803.993 125.056, 802.647 120.610 C 801.666 117.371, 800.152 113.635, 799.283 112.309 C 798.414 110.983, 796.442 109.246, 794.901 108.449 C 793.360 107.652, 790.839 107.012, 789.300 107.027 C 787.760 107.041, 785.318 107.787, 783.873 108.684 M 196 114.578 C 192.425 115.985, 185.450 118.234, 180.500 119.576 C 175.550 120.918, 159.125 124.302, 144 127.096 C 128.875 129.890, 111.617 133.278, 105.648 134.624 C 99.680 135.971, 90.455 138.461, 85.148 140.158 C 79.842 141.854, 72.125 144.976, 68 147.094 C 63.875 149.213, 59.645 151.620, 58.601 152.442 C 56.754 153.897, 56.768 153.993, 59.101 155.922 C 60.420 157.013, 62.755 158.439, 64.289 159.091 C 66.705 160.116, 67.710 159.938, 71.789 157.760 C 74.380 156.377, 79.425 154.297, 83 153.137 C 86.575 151.977, 94.675 149.864, 101 148.442 C 107.325 147.019, 123.525 143.862, 137 141.426 C 150.475 138.989, 167.783 135.390, 175.462 133.426 C 183.141 131.463, 193.491 128.539, 198.462 126.928 C 203.433 125.318, 209.693 122.702, 212.373 121.114 L 217.246 118.228 212.804 115.625 C 210.361 114.194, 207.044 112.797, 205.431 112.522 C 203.611 112.211, 200.036 112.991, 196 114.578 M 446.547 120.148 C 446.227 121.992, 445.073 129.712, 443.982 137.305 C 442.892 144.898, 442 151.760, 442 152.555 C 442 153.640, 443.371 154, 447.500 154 C 450.525 154, 453 153.825, 453 153.612 C 453 153.398, 451.836 145.186, 450.412 135.362 C 448.989 125.538, 447.668 117.342, 447.477 117.148 C 447.286 116.954, 446.867 118.304, 446.547 120.148 M 1070.137 133.755 C 1068.886 142.965, 1067.639 151.287, 1067.364 152.250 C 1066.932 153.767, 1067.607 154, 1072.433 154 C 1077.539 154, 1078 153.814, 1078.001 151.750 C 1078.002 150.512, 1077.034 142.525, 1075.852 134 C 1074.669 125.475, 1073.411 118.165, 1073.055 117.755 C 1072.700 117.345, 1071.387 124.545, 1070.137 133.755 M 220.500 129.248 C 218.300 130.902, 213.228 133.766, 209.229 135.612 C 205.230 137.458, 195.388 140.770, 187.358 142.972 C 179.328 145.174, 167.075 148.077, 160.129 149.424 C 153.183 150.771, 139.175 153.295, 129 155.034 C 118.825 156.772, 105.550 159.445, 99.500 160.972 C 93.450 162.500, 86.780 164.472, 84.678 165.354 C 82.576 166.236, 81.114 167.376, 81.430 167.886 C 81.745 168.397, 85.389 170.224, 89.526 171.946 L 97.048 175.078 109.274 172.053 C 115.998 170.389, 129.375 167.651, 139 165.968 C 148.625 164.286, 159.875 162.231, 164 161.402 C 168.125 160.573, 175.775 158.758, 181 157.369 C 186.225 155.979, 193.875 153.693, 198 152.290 C 202.125 150.886, 208.425 148.262, 212 146.458 C 215.575 144.653, 220.232 141.385, 222.350 139.194 C 225.407 136.031, 226.200 134.448, 226.200 131.505 C 226.200 129.467, 225.817 127.449, 225.350 127.020 C 224.882 126.591, 222.700 127.593, 220.500 129.248 M 982 163 L 982 177 985.250 176.998 C 987.038 176.998, 990.037 176.210, 991.915 175.248 C 993.794 174.287, 996.156 171.932, 997.165 170.016 C 998.174 168.099, 999 164.567, 999 162.167 C 999 159.766, 998.303 156.334, 997.452 154.540 C 996.600 152.745, 994.779 150.765, 993.405 150.139 C 992.030 149.512, 988.902 149, 986.453 149 L 982 149 982 163 M 50 164.315 C 50 165.621, 50.857 167.466, 51.904 168.413 C 53.525 169.880, 54.120 169.942, 55.904 168.828 C 57.057 168.108, 57.997 167.290, 57.992 167.009 C 57.988 166.729, 56.188 165.474, 53.992 164.220 L 50 161.940 50 164.315 M 66.106 174.885 C 64.742 175.934, 64.020 177.223, 64.427 177.882 C 64.820 178.518, 67.325 180.144, 69.994 181.497 L 74.846 183.956 79.529 181.884 C 82.105 180.745, 83.827 179.481, 83.356 179.075 C 82.885 178.669, 79.658 177.136, 76.184 175.669 C 72.710 174.201, 69.560 173.010, 69.184 173.022 C 68.808 173.034, 67.423 173.873, 66.106 174.885 M 59.004 186.135 C 59.006 186.886, 59.899 188.963, 60.989 190.750 C 62.079 192.537, 63.544 194, 64.245 194 C 64.946 194, 66.073 193.113, 66.749 192.030 C 67.808 190.335, 67.667 189.894, 65.740 188.874 C 64.508 188.222, 62.487 187.032, 61.250 186.229 C 59.395 185.026, 59.001 185.010, 59.004 186.135 M 426.882 234.381 C 424.893 235.092, 421.690 236.646, 419.766 237.836 C 417.841 239.025, 415.106 241.752, 413.688 243.896 C 412.269 246.040, 410.353 250.102, 409.430 252.924 C 408.212 256.648, 407.871 260.307, 408.186 266.277 C 408.512 272.470, 409.298 275.980, 411.367 280.497 C 412.879 283.795, 415.102 287.552, 416.308 288.844 C 417.514 290.137, 420.300 292.125, 422.500 293.263 C 425.150 294.633, 429.122 295.488, 434.267 295.795 C 440.099 296.143, 443.160 295.829, 446.556 294.532 C 449.044 293.582, 452.433 291.665, 454.089 290.272 C 455.744 288.879, 458.201 285.563, 459.549 282.903 C 460.897 280.243, 462 277.431, 462 276.655 C 462 275.845, 460.304 274.813, 458.022 274.234 L 454.044 273.224 451.651 278.451 C 449.987 282.087, 448.079 284.406, 445.384 286.072 C 442.503 287.852, 440.071 288.467, 435.906 288.467 C 431.441 288.467, 429.443 287.897, 426.063 285.661 C 423.261 283.806, 421.090 281.269, 419.662 278.177 C 417.915 274.397, 417.507 271.678, 417.535 264 C 417.564 256.145, 417.957 253.764, 419.805 250.251 C 421.034 247.914, 423.733 244.881, 425.803 243.512 C 427.873 242.142, 431.620 240.740, 434.129 240.396 C 437.584 239.922, 439.827 240.272, 443.365 241.837 C 446.317 243.143, 448.676 245.055, 449.769 247.027 C 450.721 248.745, 451.950 250.790, 452.500 251.571 C 453.297 252.705, 454.261 252.781, 457.250 251.950 C 459.313 251.376, 461 250.340, 461 249.649 C 461 248.957, 459.704 246.347, 458.119 243.849 C 456.534 241.350, 453.947 238.406, 452.369 237.306 C 450.791 236.206, 447.970 234.787, 446.101 234.153 C 444.231 233.519, 439.956 233.020, 436.601 233.044 C 433.245 233.068, 428.872 233.670, 426.882 234.381 M 621.882 234.381 C 619.893 235.092, 616.690 236.646, 614.766 237.836 C 612.841 239.025, 610.106 241.752, 608.688 243.896 C 607.269 246.040, 605.353 250.102, 604.430 252.924 C 603.212 256.648, 602.871 260.307, 603.186 266.277 C 603.512 272.470, 604.298 275.980, 606.367 280.497 C 607.879 283.795, 610.102 287.552, 611.308 288.844 C 612.514 290.137, 615.300 292.125, 617.500 293.263 C 620.150 294.633, 624.122 295.488, 629.267 295.795 C 635.099 296.143, 638.160 295.829, 641.556 294.532 C 644.044 293.582, 647.433 291.665, 649.089 290.272 C 650.744 288.879, 653.201 285.563, 654.549 282.903 C 655.897 280.243, 657 277.431, 657 276.655 C 657 275.845, 655.304 274.813, 653.022 274.234 L 649.044 273.224 646.651 278.451 C 644.987 282.087, 643.079 284.406, 640.384 286.072 C 637.503 287.852, 635.071 288.467, 630.906 288.467 C 626.441 288.467, 624.443 287.897, 621.063 285.661 C 618.261 283.806, 616.090 281.269, 614.662 278.177 C 612.915 274.397, 612.507 271.678, 612.535 264 C 612.564 256.145, 612.957 253.764, 614.805 250.251 C 616.034 247.914, 618.733 244.881, 620.803 243.512 C 622.873 242.142, 626.620 240.740, 629.129 240.396 C 632.584 239.922, 634.827 240.272, 638.365 241.837 C 641.317 243.143, 643.676 245.055, 644.769 247.027 C 645.721 248.745, 646.950 250.790, 647.500 251.571 C 648.297 252.705, 649.261 252.781, 652.250 251.950 C 654.313 251.376, 656 250.340, 656 249.649 C 656 248.957, 654.704 246.347, 653.119 243.849 C 651.534 241.350, 648.947 238.406, 647.369 237.306 C 645.791 236.206, 642.970 234.787, 641.101 234.153 C 639.231 233.519, 634.956 233.020, 631.601 233.044 C 628.245 233.068, 623.872 233.670, 621.882 234.381 M 367.438 248.699 C 364.272 256.840, 359.054 270.245, 355.841 278.488 C 352.629 286.731, 350 293.819, 350 294.238 C 350 294.657, 351.966 295, 354.368 295 L 358.736 295 362.224 285.750 L 365.711 276.500 377.946 276.500 L 390.182 276.500 393.723 285.750 L 397.265 295 402.132 295 C 404.810 295, 407 294.845, 407 294.656 C 407 294.467, 401.453 280.854, 394.674 264.406 L 382.349 234.500 377.771 234.199 L 373.193 233.898 367.438 248.699 M 495 264.500 L 495 295 499.500 295 L 504 295 504 268 L 504 241 519.500 241 L 535 241 535 268 L 535 295 539.500 295 L 544 295 544 264.500 L 544 234 519.500 234 L 495 234 495 264.500 M 557 264.500 L 557 295 561.500 295 L 566 295 566 280.433 L 566 265.865 568.250 266.534 C 569.487 266.902, 571.817 268.483, 573.426 270.047 C 575.035 271.611, 579.314 277.752, 582.934 283.695 L 589.517 294.500 594.759 294.802 C 597.641 294.969, 600 294.790, 600 294.406 C 600 294.022, 597.226 289.161, 593.836 283.604 C 590.446 278.047, 586.568 271.999, 585.220 270.165 C 583.872 268.331, 581.474 266.042, 579.891 265.080 L 577.014 263.330 579.551 261.973 C 581.191 261.095, 583.468 257.711, 585.990 252.402 C 588.136 247.885, 590.916 243.472, 592.168 242.595 C 593.421 241.718, 595.695 241, 597.223 241 C 599.730 241, 600 240.660, 600 237.500 L 600 234 595.148 234 C 591.749 234, 589.278 234.685, 586.898 236.288 C 584.464 237.926, 582.223 241.183, 579 247.765 C 576.525 252.819, 573.825 257.610, 573 258.411 C 572.175 259.213, 570.263 260.172, 568.750 260.543 L 566 261.217 566 247.608 L 566 234 561.500 234 L 557 234 557 264.500 M 376.554 245.754 C 376.184 247.438, 374.151 253.357, 372.035 258.908 L 368.189 269 377.594 269 C 382.767 269, 387 268.842, 387 268.649 C 387 268.456, 384.801 262.536, 382.113 255.495 C 377.712 243.965, 377.160 242.997, 376.554 245.754" stroke="none" fill="#fff" fill-rule="evenodd"/></svg>